<svg xmlns="http://www.w3.org/2000/svg" viewBox="0 0 313.13 315"><defs><style>.cls-1{fill:#414241;}</style></defs><g id="Layer_2" data-name="Layer 2"><g id="Layer_1-2" data-name="Layer 1"><path class="cls-1" d="M288,35.83a.63.63,0,1,0,.63-.63A.63.63,0,0,0,288,35.83Z"/><path class="cls-1" d="M302.85,108.57a.63.63,0,0,0,1.26,0,.63.63,0,0,0-1.26,0Z"/><path class="cls-1" d="M304.35,135a.64.64,0,1,0,.64-.63A.64.64,0,0,0,304.35,135Z"/><path class="cls-1" d="M277.8,43a.63.63,0,1,0,.63-.64A.63.63,0,0,0,277.8,43Z"/><path class="cls-1" d="M281,165a.64.64,0,1,0,.63-.63A.63.63,0,0,0,281,165Z"/><path class="cls-1" d="M309.69,282.43a.63.63,0,0,0,1.26,0,.63.63,0,0,0-1.26,0Z"/><path class="cls-1" d="M168.89,23.09a.63.63,0,1,0,.63-.63A.64.64,0,0,0,168.89,23.09Z"/><path class="cls-1" d="M271.84,196.81a.63.63,0,1,0,.63-.63A.63.63,0,0,0,271.84,196.81Z"/><path class="cls-1" d="M307.11,266.83a.63.63,0,0,0,1.26,0,.63.63,0,1,0-1.26,0Z"/><path class="cls-1" d="M307.25,121.66a.63.63,0,1,0,.63-.63A.63.63,0,0,0,307.25,121.66Z"/><circle class="cls-1" cx="174.96" cy="58.14" r="0.63"/><circle class="cls-1" cx="296.35" cy="300.32" r="0.63"/><path class="cls-1" d="M273.23,103.18a.63.63,0,1,0,.63-.63A.63.63,0,0,0,273.23,103.18Z"/><circle class="cls-1" cx="9.37" cy="313.38" r="0.63"/><path class="cls-1" d="M305.42,3.29a.63.63,0,0,0,.63.63.63.63,0,0,0,0-1.26A.63.63,0,0,0,305.42,3.29Z"/><path class="cls-1" d="M128.51,10.31a.63.63,0,1,0,.63-.63A.63.63,0,0,0,128.51,10.31Z"/><path class="cls-1" d="M138.74,46.49a.63.63,0,1,0,.63-.63A.63.63,0,0,0,138.74,46.49Z"/><path class="cls-1" d="M298,52.69a.63.63,0,1,0,.63.63.63.63,0,0,0-.63-.63"/><path class="cls-1" d="M272.42,136.74a.63.63,0,1,0,.63-.63A.63.63,0,0,0,272.42,136.74Z"/><path class="cls-1" d="M277.69,305.71a.63.63,0,1,0,.63-.63A.63.63,0,0,0,277.69,305.71Z"/><path class="cls-1" d="M52.06,308.4a.63.63,0,1,0,.63-.63A.63.63,0,0,0,52.06,308.4Z"/><path class="cls-1" d="M64,301.24a.63.63,0,1,0,.63-.63A.63.63,0,0,0,64,301.24Z"/><path class="cls-1" d="M309.32,222a.63.63,0,1,0,1.26,0,.63.63,0,0,0-1.26,0Z"/><circle class="cls-1" cx="226.35" cy="130.28" r="0.63"/><path class="cls-1" d="M104.81,26.46a.63.63,0,0,0,.63.63.63.63,0,0,0,0-1.26A.63.63,0,0,0,104.81,26.46Z"/><path class="cls-1" d="M282.7,233.31a.63.63,0,1,0,.63-.63A.63.63,0,0,0,282.7,233.31Z"/><path class="cls-1" d="M80.39,299.18a.63.63,0,1,0,.63-.64A.63.63,0,0,0,80.39,299.18Z"/><path class="cls-1" d="M264.26,43.84a.63.63,0,1,0,.63-.63A.63.63,0,0,0,264.26,43.84Z"/><path class="cls-1" d="M157.76,230.36a.64.64,0,1,0,.63-.63A.63.63,0,0,0,157.76,230.36Z"/><path class="cls-1" d="M193.79,243.93a.63.63,0,0,0,.63.63.63.63,0,0,0,0-1.26A.63.63,0,0,0,193.79,243.93Z"/><path class="cls-1" d="M190,40.56a.63.63,0,1,0,.63-.63A.63.63,0,0,0,190,40.56Z"/><path class="cls-1" d="M297.58,260.25a.63.63,0,1,0,.63-.63A.64.64,0,0,0,297.58,260.25Z"/><path class="cls-1" d="M265.75,301.88a.63.63,0,0,0,1.26,0,.63.63,0,0,0-1.26,0Z"/><path class="cls-1" d="M286.25,199.65a.63.63,0,1,0,.63-.63A.63.63,0,0,0,286.25,199.65Z"/><path class="cls-1" d="M275.94,189a.63.63,0,1,0,1.26,0,.63.63,0,0,0-1.26,0Z"/><path class="cls-1" d="M295.29,277.15a.64.64,0,1,0,.63-.63A.64.64,0,0,0,295.29,277.15Z"/><path class="cls-1" d="M298.15,100.23a.64.64,0,1,0,.64-.63A.64.64,0,0,0,298.15,100.23Z"/><path class="cls-1" d="M293.65,144.93a.63.63,0,1,0,.63-.63A.63.63,0,0,0,293.65,144.93Z"/><path class="cls-1" d="M186.49,14.67a.63.63,0,1,0,.63-.64A.63.63,0,0,0,186.49,14.67Z"/><circle class="cls-1" cx="186.57" cy="261.38" r="0.63"/><path class="cls-1" d="M73.81,19a.63.63,0,1,0,.63-.64A.63.63,0,0,0,73.81,19Z"/><path class="cls-1" d="M211.26,269.29a.63.63,0,1,0,.63-.63A.63.63,0,0,0,211.26,269.29Z"/><path class="cls-1" d="M249.49,121.1a.63.63,0,1,0,.63-.63A.63.63,0,0,0,249.49,121.1Z"/><path class="cls-1" d="M271.71,114.07a.63.63,0,1,0,.63-.63A.64.64,0,0,0,271.71,114.07Z"/><path class="cls-1" d="M311.87,106.74a.63.63,0,0,0,1.26,0,.63.63,0,0,0-1.26,0Z"/><path class="cls-1" d="M240.71,104.29a.63.63,0,1,0,.63-.63A.63.63,0,0,0,240.71,104.29Z"/><path class="cls-1" d="M295.92,26a.63.63,0,0,0,.63.63.63.63,0,0,0,0-1.26A.63.63,0,0,0,295.92,26Z"/><path class="cls-1" d="M215,163.11a.64.64,0,0,0,.63.64.64.64,0,0,0,0-1.27A.63.63,0,0,0,215,163.11Z"/><path class="cls-1" d="M203.25,34.24a.63.63,0,1,0,.63-.63A.63.63,0,0,0,203.25,34.24Z"/><path class="cls-1" d="M311.14,246.16a.63.63,0,1,0,.63-.64A.63.63,0,0,0,311.14,246.16Z"/><path class="cls-1" d="M234.61,190.11a.63.63,0,1,0,.63-.63A.63.63,0,0,0,234.61,190.11Z"/><path class="cls-1" d="M167.68,282.05a.64.64,0,0,0,1.27,0,.64.64,0,0,0-1.27,0Z"/><path class="cls-1" d="M251.64,78.83a.63.63,0,1,0,.63-.63A.63.63,0,0,0,251.64,78.83Z"/><circle class="cls-1" cx="28.13" cy="34.3" r="0.63"/><path class="cls-1" d="M257.55,304.73a.63.63,0,0,0,.63.63.63.63,0,0,0,.63-.63.64.64,0,0,0-.63-.63A.63.63,0,0,0,257.55,304.73Z"/><path class="cls-1" d="M278,268.4a.63.63,0,0,0,1.26,0,.63.63,0,0,0-1.26,0Z"/><circle class="cls-1" cx="162.49" cy="302.58" r="0.63"/><path class="cls-1" d="M206.91,300.31a.63.63,0,0,0,1.26,0,.63.63,0,0,0-1.26,0Z"/><path class="cls-1" d="M160.07,41.51a.63.63,0,1,0,.63-.63A.63.63,0,0,0,160.07,41.51Z"/><path class="cls-1" d="M233.16,12.47a.63.63,0,1,0,.63-.63A.63.63,0,0,0,233.16,12.47Z"/><circle class="cls-1" cx="259.87" cy="146.02" r="0.63"/><path class="cls-1" d="M240.55,290.36a.63.63,0,0,0,.63.63.63.63,0,0,0,0-1.26A.63.63,0,0,0,240.55,290.36Z"/><path class="cls-1" d="M296,207.05a.63.63,0,1,0,.63-.64A.63.63,0,0,0,296,207.05Z"/><path class="cls-1" d="M241.46,214.05a.63.63,0,1,0,.63-.63A.63.63,0,0,0,241.46,214.05Z"/><path class="cls-1" d="M173.52,35.88a.63.63,0,1,0,.63-.63A.63.63,0,0,0,173.52,35.88Z"/><path class="cls-1" d="M289.88,131a.64.64,0,0,0,.63.63.63.63,0,0,0,.63-.63.63.63,0,0,0-.63-.63.63.63,0,0,0-.63.63"/><circle class="cls-1" cx="174.98" cy="114.92" r="0.63"/><path class="cls-1" d="M300.35,156.84a.63.63,0,1,0,.63-.63A.63.63,0,0,0,300.35,156.84Z"/><path class="cls-1" d="M254.07,196.1a.63.63,0,1,0,.63-.63A.63.63,0,0,0,254.07,196.1Z"/><path class="cls-1" d="M180.29,301.88a.64.64,0,1,0,.63-.63A.63.63,0,0,0,180.29,301.88Z"/><path class="cls-1" d="M286.83,180.94a.63.63,0,1,0,.63-.63A.63.63,0,0,0,286.83,180.94Z"/><path class="cls-1" d="M279.19,66.38a.63.63,0,1,0,.63-.63A.63.63,0,0,0,279.19,66.38Z"/><path class="cls-1" d="M307.35,57.19a.63.63,0,1,0,.63-.63A.63.63,0,0,0,307.35,57.19Z"/><path class="cls-1" d="M174.59,13a.63.63,0,1,0,.63-.63A.63.63,0,0,0,174.59,13Z"/><path class="cls-1" d="M196.69,306a.63.63,0,1,0,.63-.63A.63.63,0,0,0,196.69,306Z"/><path class="cls-1" d="M298.39,176.64A.63.63,0,1,0,299,176,.63.63,0,0,0,298.39,176.64Z"/><path class="cls-1" d="M261.5,48.28a.63.63,0,0,0,1.26,0,.63.63,0,1,0-1.26,0Z"/><path class="cls-1" d="M309.27,26a.63.63,0,1,0,.63-.63A.63.63,0,0,0,309.27,26Z"/><path class="cls-1" d="M251.72,173.28a.63.63,0,0,0,.63.63.63.63,0,0,0,0-1.26A.63.63,0,0,0,251.72,173.28Z"/><path class="cls-1" d="M30,314.37a.63.63,0,0,0,.63.63.63.63,0,1,0,0-1.26A.63.63,0,0,0,30,314.37Z"/><path class="cls-1" d="M36.87,297.85a.63.63,0,0,0,.63.63.63.63,0,1,0,0-1.26A.63.63,0,0,0,36.87,297.85Z"/><path class="cls-1" d="M294.22,236.43a.63.63,0,1,0,.63-.63A.63.63,0,0,0,294.22,236.43Z"/><path class="cls-1" d="M251.1,1.23a.63.63,0,0,0,.63.63.63.63,0,1,0,0-1.26A.63.63,0,0,0,251.1,1.23Z"/><path class="cls-1" d="M291.64,224a.63.63,0,1,0,.63-.63A.63.63,0,0,0,291.64,224Z"/><path class="cls-1" d="M203.3,54.84a.63.63,0,1,0,.63-.63A.63.63,0,0,0,203.3,54.84Z"/><path class="cls-1" d="M220.33,245.55a.63.63,0,1,0,.63-.63A.63.63,0,0,0,220.33,245.55Z"/><path class="cls-1" d="M212.11,313.15a.64.64,0,1,0,.63-.63A.63.63,0,0,0,212.11,313.15Z"/><path class="cls-1" d="M288.84,117.13a.64.64,0,0,0,1.27,0,.64.64,0,0,0-1.27,0Z"/><path class="cls-1" d="M232.48,286a.64.64,0,1,0,.63-.63A.63.63,0,0,0,232.48,286Z"/><path class="cls-1" d="M307,88.93a.63.63,0,1,0,.63-.63A.63.63,0,0,0,307,88.93Z"/><path class="cls-1" d="M197,217.93a.63.63,0,1,0,.63-.63A.63.63,0,0,0,197,217.93Z"/><path class="cls-1" d="M218.2,41.44a.64.64,0,1,0,.64-.63A.64.64,0,0,0,218.2,41.44Z"/><path class="cls-1" d="M215.77,16.83a.63.63,0,1,0,.63-.63A.63.63,0,0,0,215.77,16.83Z"/><path class="cls-1" d="M208,10.71a.64.64,0,1,0,.64-.63A.64.64,0,0,0,208,10.71Z"/><path class="cls-1" d="M110.93,290.48a.63.63,0,0,0,1.26,0,.63.63,0,0,0-1.26,0Z"/><path class="cls-1" d="M287.56,71.13a.63.63,0,1,0,.63-.63A.63.63,0,0,0,287.56,71.13Z"/><path class="cls-1" d="M281.23,292.21a.64.64,0,1,0,.64-.63A.64.64,0,0,0,281.23,292.21Z"/><path class="cls-1" d="M306.79,309.23a.63.63,0,1,0,.63-.63A.63.63,0,0,0,306.79,309.23Z"/><path class="cls-1" d="M269.89,90.36a.63.63,0,0,0,.63.63.63.63,0,0,0,0-1.26A.63.63,0,0,0,269.89,90.36Z"/><path class="cls-1" d="M132.06,299.64a.63.63,0,0,0,.63.63.63.63,0,0,0,0-1.26A.63.63,0,0,0,132.06,299.64Z"/><path class="cls-1" d="M257.49,220.24a.63.63,0,0,0,.63.63.63.63,0,0,0,0-1.26A.63.63,0,0,0,257.49,220.24Z"/><circle class="cls-1" cx="251.82" cy="38.35" r="0.63"/><path class="cls-1" d="M190.46,80.94a.63.63,0,0,0,1.26,0,.63.63,0,1,0-1.26,0Z"/><path class="cls-1" d="M236.23,61.74a.63.63,0,1,0,.63-.63A.63.63,0,0,0,236.23,61.74Z"/><path class="cls-1" d="M306.09,74.45a.63.63,0,1,0,.63-.63A.63.63,0,0,0,306.09,74.45Z"/><path class="cls-1" d="M237.2,177.27a.63.63,0,1,0,.63-.63A.64.64,0,0,0,237.2,177.27Z"/><path class="cls-1" d="M223.07,297.15a.64.64,0,1,0,.63-.63A.63.63,0,0,0,223.07,297.15Z"/><path class="cls-1" d="M230.77,227.42a.63.63,0,1,0,.63-.63A.63.63,0,0,0,230.77,227.42Z"/><circle class="cls-1" cx="292.69" cy="4.86" r="0.63"/><path class="cls-1" d="M308.45,13.05a.63.63,0,0,0,.63.63.63.63,0,0,0,.63-.63.63.63,0,0,0-.63-.63A.64.64,0,0,0,308.45,13.05Z"/><path class="cls-1" d="M74.68,37a.63.63,0,1,0,.63-.63A.63.63,0,0,0,74.68,37Z"/><path class="cls-1" d="M255.8,65.23a.63.63,0,1,0,1.26,0,.63.63,0,1,0-1.26,0Z"/><path class="cls-1" d="M80.89,60.82a.63.63,0,1,0,.63-.64A.63.63,0,0,0,80.89,60.82Z"/><path class="cls-1" d="M300.12,248.53a.64.64,0,1,0,.63-.63A.63.63,0,0,0,300.12,248.53Z"/><path class="cls-1" d="M237.87,249.93a.63.63,0,1,0,.63-.63A.63.63,0,0,0,237.87,249.93Z"/><path class="cls-1" d="M254,22.12a.64.64,0,1,0,.64-.63A.64.64,0,0,0,254,22.12Z"/><path class="cls-1" d="M264.3,8.22a.64.64,0,1,0,.64-.63A.64.64,0,0,0,264.3,8.22Z"/><circle class="cls-1" cx="287.1" cy="215.88" r="0.63"/><path class="cls-1" d="M179,223.62a.63.63,0,1,0,.63-.63A.63.63,0,0,0,179,223.62Z"/><circle class="cls-1" cx="300.49" cy="194.06" r="0.63"/><path class="cls-1" d="M128.44,263.64a.63.63,0,0,0,.63.63.63.63,0,0,0,0-1.26A.63.63,0,0,0,128.44,263.64Z"/><path class="cls-1" d="M300.48,218.63a.63.63,0,1,0,.63-.63A.63.63,0,0,0,300.48,218.63Z"/><path class="cls-1" d="M243,152.61a.63.63,0,0,0,1.26,0,.63.63,0,0,0-1.26,0Z"/><path class="cls-1" d="M7.44,30.11a.63.63,0,0,0,.63.63.64.64,0,0,0,.63-.63.63.63,0,0,0-.63-.63A.63.63,0,0,0,7.44,30.11Z"/><circle class="cls-1" cx="306.66" cy="208.1" r="0.63"/><path class="cls-1" d="M310.6,187.74a.63.63,0,1,0,.63-.63A.63.63,0,0,0,310.6,187.74Z"/><path class="cls-1" d="M55.27,288.89a.63.63,0,1,0,.63-.63A.63.63,0,0,0,55.27,288.89Z"/><path class="cls-1" d="M296.79,286.73a.64.64,0,0,0,.63.64.64.64,0,0,0,0-1.27A.63.63,0,0,0,296.79,286.73Z"/><path class="cls-1" d="M273.21,175.18a.63.63,0,0,0,.63.63.63.63,0,0,0,0-1.26A.63.63,0,0,0,273.21,175.18Z"/><circle class="cls-1" cx="308.44" cy="172.45" r="0.63"/><path class="cls-1" d="M164.06,4.53a.63.63,0,1,0,.63-.63A.63.63,0,0,0,164.06,4.53Z"/><circle class="cls-1" cx="266.96" cy="68.73" r="0.63"/><path class="cls-1" d="M196.54,105.53a.63.63,0,1,0,.63-.63A.63.63,0,0,0,196.54,105.53Z"/><path class="cls-1" d="M218.84,86a.63.63,0,1,0,.63-.63A.63.63,0,0,0,218.84,86Z"/><circle class="cls-1" cx="275.99" cy="242.52" r="0.63"/><path class="cls-1" d="M282.7,97.21a.63.63,0,1,0,.63-.63A.63.63,0,0,0,282.7,97.21Z"/><path class="cls-1" d="M279.14,150a.63.63,0,1,0,.63-.63A.63.63,0,0,0,279.14,150Z"/><path class="cls-1" d="M144.94,309.41a.63.63,0,1,0,.63-.63A.63.63,0,0,0,144.94,309.41Z"/><path class="cls-1" d="M258.56,90.5a.63.63,0,1,0,.63-.63A.63.63,0,0,0,258.56,90.5Z"/><path class="cls-1" d="M274.39,3.22a.63.63,0,0,0,.63.63.63.63,0,0,0,0-1.26A.63.63,0,0,0,274.39,3.22Z"/><path class="cls-1" d="M305.62,234.24a.63.63,0,1,0,.63-.63A.64.64,0,0,0,305.62,234.24Z"/><path class="cls-1" d="M154.6,86.82a.63.63,0,1,0,.63-.63A.63.63,0,0,0,154.6,86.82Z"/><path class="cls-1" d="M195.6,9.2a.63.63,0,1,0,.63-.63A.63.63,0,0,0,195.6,9.2Z"/><path class="cls-1" d="M232.11,267.06a.63.63,0,1,0,.63-.63A.63.63,0,0,0,232.11,267.06Z"/><path class="cls-1" d="M15,290.78a.63.63,0,1,0,.63-.63A.63.63,0,0,0,15,290.78Z"/><path class="cls-1" d="M13,51a.63.63,0,0,0,.63.63.63.63,0,0,0,0-1.26A.63.63,0,0,0,13,51Z"/><path class="cls-1" d="M308.35,299.28a.63.63,0,1,0,.63-.63A.63.63,0,0,0,308.35,299.28Z"/><path class="cls-1" d="M7.18,16.23a.63.63,0,0,0,.63.63.63.63,0,0,0,0-1.26A.63.63,0,0,0,7.18,16.23Z"/><path class="cls-1" d="M229.37,79.24a.63.63,0,0,0,1.26,0,.63.63,0,0,0-1.26,0Z"/><path class="cls-1" d="M27.61,62.37a.63.63,0,1,0,.63-.63A.63.63,0,0,0,27.61,62.37Z"/><path class="cls-1" d="M203.28,247.93a.63.63,0,1,0,.63-.63A.63.63,0,0,0,203.28,247.93Z"/><path class="cls-1" d="M261.63,167.65a.63.63,0,1,0,.63-.63A.63.63,0,0,0,261.63,167.65Z"/><path class="cls-1" d="M263.9,121.46a.64.64,0,1,0,.63-.63A.63.63,0,0,0,263.9,121.46Z"/><path class="cls-1" d="M245.27,232.42a.63.63,0,1,0,.63-.63A.63.63,0,0,0,245.27,232.42Z"/><path class="cls-1" d="M187.33,290.7a.63.63,0,1,0,.63-.63A.63.63,0,0,0,187.33,290.7Z"/><path class="cls-1" d="M266,34a.64.64,0,1,0,.63-.63A.63.63,0,0,0,266,34Z"/><circle class="cls-1" cx="276.72" cy="216.12" r="0.63"/><path class="cls-1" d="M286.4,253.63a.63.63,0,1,0,1.26,0,.63.63,0,1,0-1.26,0Z"/><path class="cls-1" d="M263.26,266.68a.63.63,0,1,0,.63-.63A.63.63,0,0,0,263.26,266.68Z"/><path class="cls-1" d="M286.13,16a.63.63,0,1,0,1.26,0,.63.63,0,0,0-1.26,0Z"/><path class="cls-1" d="M111.61,12.75a.63.63,0,1,0,.63-.63A.63.63,0,0,0,111.61,12.75Z"/><path class="cls-1" d="M213.15,145.68a.64.64,0,1,0,.63-.63A.63.63,0,0,0,213.15,145.68Z"/><path class="cls-1" d="M288.85,271.86a.63.63,0,0,0,1.26,0,.63.63,0,0,0-1.26,0Z"/><path class="cls-1" d="M58.78.63A.63.63,0,1,0,59.41,0,.63.63,0,0,0,58.78.63Z"/><path class="cls-1" d="M144.94,10.84a.64.64,0,1,0,.64-.63A.64.64,0,0,0,144.94,10.84Z"/><path class="cls-1" d="M0,262a.63.63,0,1,0,.63-.63A.63.63,0,0,0,0,262Z"/><path class="cls-1" d="M273.94,257.07a.63.63,0,0,0,1.26,0,.63.63,0,0,0-1.26,0Z"/><path class="cls-1" d="M263.57,209a.63.63,0,1,0,.63-.63A.63.63,0,0,0,263.57,209Z"/><path class="cls-1" d="M271.31,18.65a.63.63,0,1,0,.63-.63A.63.63,0,0,0,271.31,18.65Z"/><path class="cls-1" d="M209.63,197.38a.63.63,0,0,0,.63.63.63.63,0,0,0,0-1.26A.63.63,0,0,0,209.63,197.38Z"/><path class="cls-1" d="M309.79,148.13a.63.63,0,0,0,.63.63.63.63,0,0,0,0-1.26A.63.63,0,0,0,309.79,148.13Z"/><path class="cls-1" d="M236.49,305.71a.63.63,0,0,0,.63.63.64.64,0,0,0,.63-.63.63.63,0,0,0-.63-.63A.63.63,0,0,0,236.49,305.71Z"/><path class="cls-1" d="M149.8,271.51a.63.63,0,1,0,.63-.63A.64.64,0,0,0,149.8,271.51Z"/><path class="cls-1" d="M46.57,13a.63.63,0,0,0,.63.63.63.63,0,0,0,0-1.26A.63.63,0,0,0,46.57,13Z"/><path class="cls-1" d="M173.67,255.17a.63.63,0,1,0,1.26,0,.63.63,0,1,0-1.26,0Z"/><path class="cls-1" d="M218.55,115.91a.63.63,0,1,0,.63-.63A.63.63,0,0,0,218.55,115.91Z"/><path class="cls-1" d="M288.64,162.75a.64.64,0,1,0,.63-.63A.63.63,0,0,0,288.64,162.75Z"/><path class="cls-1" d="M303.65,39.94a.63.63,0,1,0,.63-.63A.63.63,0,0,0,303.65,39.94Z"/><path class="cls-1" d="M177.94,176.48a.63.63,0,0,0,.63.63.63.63,0,0,0,.63-.63.63.63,0,0,0-.63-.63A.64.64,0,0,0,177.94,176.48Z"/><path class="cls-1" d="M262.31,282.21a.63.63,0,0,0,1.26,0,.63.63,0,0,0-1.26,0Z"/><path class="cls-1" d="M20.13,273a.63.63,0,1,0,1.26,0,.63.63,0,1,0-1.26,0Z"/><path class="cls-1" d="M271.73,290a.63.63,0,1,0,.63-.63A.63.63,0,0,0,271.73,290Z"/><path class="cls-1" d="M253.48,249.84a.63.63,0,1,0,.63-.64A.63.63,0,0,0,253.48,249.84Z"/><path class="cls-1" d="M214.31,226.75a.63.63,0,0,0,.63.63.63.63,0,0,0,0-1.26A.63.63,0,0,0,214.31,226.75Z"/><path class="cls-1" d="M295.25,76.66a.64.64,0,1,0,.63-.63A.63.63,0,0,0,295.25,76.66Z"/><path class="cls-1" d="M229.4,27.68a.63.63,0,0,0,1.26,0,.63.63,0,1,0-1.26,0Z"/><path class="cls-1" d="M268,153.47a.63.63,0,0,0,.63.63.63.63,0,0,0,0-1.26A.63.63,0,0,0,268,153.47Z"/><path class="cls-1" d="M119.64,312.86a.63.63,0,1,0,.63-.63A.63.63,0,0,0,119.64,312.86Z"/><circle class="cls-1" cx="290.56" cy="104.63" r="0.63"/><path class="cls-1" d="M193.4,275.53a.63.63,0,1,0,1.26,0,.63.63,0,0,0-1.26,0Z"/><path class="cls-1" d="M75.67,266.05a.63.63,0,1,0,1.26,0,.63.63,0,0,0-1.26,0Z"/><path class="cls-1" d="M213.7,180.9a.63.63,0,0,0,.63.63.63.63,0,0,0,0-1.26A.63.63,0,0,0,213.7,180.9Z"/><path class="cls-1" d="M280.43,279.48a.63.63,0,1,0,.63-.63A.63.63,0,0,0,280.43,279.48Z"/><path class="cls-1" d="M79.51,4.83a.63.63,0,0,0,.63.63.63.63,0,0,0,0-1.26A.63.63,0,0,0,79.51,4.83Z"/><path class="cls-1" d="M182.11,144.16a.63.63,0,1,0,.63-.63A.63.63,0,0,0,182.11,144.16Z"/><path class="cls-1" d="M248.05,303.76a.63.63,0,0,0,.63.63.63.63,0,0,0,.63-.63.63.63,0,0,0-.63-.63A.64.64,0,0,0,248.05,303.76Z"/><path class="cls-1" d="M242,47.54a.63.63,0,1,0,.63-.63A.63.63,0,0,0,242,47.54Z"/><path class="cls-1" d="M263.06,237.78a.63.63,0,1,0,.63-.63A.63.63,0,0,0,263.06,237.78Z"/><path class="cls-1" d="M290.51,88.88a.64.64,0,1,0,.63-.63A.63.63,0,0,0,290.51,88.88Z"/><path class="cls-1" d="M249.18,268.43a.63.63,0,0,0,1.26,0,.63.63,0,0,0-1.26,0Z"/><path class="cls-1" d="M112.89,52.38a.63.63,0,1,0,.63-.63A.64.64,0,0,0,112.89,52.38Z"/><path class="cls-1" d="M246.8,14.31a.63.63,0,1,0,.63-.63A.63.63,0,0,0,246.8,14.31Z"/><path class="cls-1" d="M287,47.8a.63.63,0,1,0,.63-.63A.63.63,0,0,0,287,47.8Z"/><path class="cls-1" d="M142,32.53a.63.63,0,0,0,.63.63.63.63,0,0,0,0-1.26A.63.63,0,0,0,142,32.53Z"/><circle class="cls-1" cx="247.51" cy="135.02" r="0.63"/><path class="cls-1" d="M218.28,277.2a.63.63,0,1,0,.63-.63A.63.63,0,0,0,218.28,277.2Z"/><path class="cls-1" d="M106.61,277.93a.64.64,0,1,0,.64-.64A.64.64,0,0,0,106.61,277.93Z"/><path class="cls-1" d="M222.65,209.42a.63.63,0,1,0,.63-.64A.63.63,0,0,0,222.65,209.42Z"/></g></g></svg>