<svg xmlns="http://www.w3.org/2000/svg" viewBox="0 0 3489.95 2086.45"><defs><style>.cls-1{fill:#2c447d;}.cls-2{fill:#2c3872;}.cls-3{fill:#4656a2;}.cls-4{fill:#39488d;}.cls-5{fill:#232851;}.cls-6{fill:#15172d;}.cls-7{font-size:596.42px;fill:none;stroke:#2c447d;stroke-width:31px;}.cls-7,.cls-8{stroke-miterlimit:10;font-family:ArialRoundedMTBold, Arial Rounded MT Bold;}.cls-8{font-size:181.19px;fill:#191f3a;stroke:#191f3a;stroke-width:2px;}</style></defs><g id="Layer_2" data-name="Layer 2"><g id="Слой_1" data-name="Слой 1"><path class="cls-1" d="M867.42,1182.16v405.18a127,127,0,0,1-127,127H127a94.42,94.42,0,0,0-94.42,94.42v261.36a16.3,16.3,0,0,1-16.3,16.3h0A16.29,16.29,0,0,1,0,2070.15V1808.79a127,127,0,0,1,127-127h613.4a94.42,94.42,0,0,0,94.42-94.42v-405.2Z"/><path class="cls-2" d="M904.08,1269.61v64.94A28.07,28.07,0,0,1,876,1362.62H826.23a28,28,0,0,1-21.35-9.86h0a27.94,27.94,0,0,1-6.71-18.2v-64.94Z"/><path class="cls-3" d="M959.41,1118.25V1248a36.27,36.27,0,0,1-36.28,36.26h-144A36.27,36.27,0,0,1,742.84,1248V1118.25Z"/><rect class="cls-4" x="725.19" y="1089.69" width="251.88" height="28.56" rx="4.76" transform="translate(1702.25 2207.95) rotate(180)"/><path class="cls-5" d="M818.62,1089.69h-36.9v-88.27A18.45,18.45,0,0,1,800.17,983h0a18.45,18.45,0,0,1,18.45,18.45Z"/><path class="cls-5" d="M902.08,983h0a18.45,18.45,0,0,1,18.45,18.45v88.27a0,0,0,0,1,0,0H883.62a0,0,0,0,1,0,0v-88.27A18.45,18.45,0,0,1,902.08,983Z"/><path class="cls-4" d="M959.41,1118.25V1248a36.27,36.27,0,0,1-36.28,36.26h-144A36.27,36.27,0,0,1,742.84,1248c155.51-10.81,169.8-129.71,169.8-129.71Z"/><rect class="cls-2" x="742.84" y="1118.25" width="216.57" height="10.46"/><path class="cls-2" d="M959.41,1173.07V1248a36.27,36.27,0,0,1-36.28,36.26H822C924.13,1284.22,959.41,1173.07,959.41,1173.07Z"/><rect class="cls-5" x="798.17" y="1284.22" width="105.91" height="6.78"/><rect class="cls-6" x="781.72" y="1076.77" width="36.91" height="12.92"/><rect class="cls-6" x="883.62" y="1076.77" width="36.91" height="12.92"/><path class="cls-5" d="M904.08,1284.22v50.33A28.07,28.07,0,0,1,876,1362.62H826.23a28,28,0,0,1-21.35-9.86h0c77.58,9.52,89.43-68.53,89.43-68.53Z"/><path class="cls-1" d="M1841.49,16.29h0a16.29,16.29,0,0,1-16.29,16.29H961.85A94.43,94.43,0,0,0,867.42,127V555.21H834.83V127a127,127,0,0,1,127-127H1825.2A16.29,16.29,0,0,1,1841.49,16.29Z"/><path class="cls-2" d="M904.08,518.54V453.61A28.07,28.07,0,0,0,876,425.54H826.23a28,28,0,0,0-21.35,9.86h0a27.92,27.92,0,0,0-6.71,18.2v64.93Z"/><path class="cls-3" d="M959.41,669.91V540.2a36.27,36.27,0,0,0-36.28-36.27h-144a36.27,36.27,0,0,0-36.27,36.27V669.91Z"/><rect class="cls-4" x="725.19" y="669.91" width="251.88" height="28.56" rx="4.76" transform="translate(1702.25 1368.37) rotate(180)"/><path class="cls-4" d="M959.41,669.91V540.2a36.27,36.27,0,0,0-36.28-36.27h-144a36.27,36.27,0,0,0-36.27,36.27C898.35,551,912.64,669.91,912.64,669.91Z"/><rect class="cls-2" x="742.84" y="659.45" width="216.57" height="10.46"/><path class="cls-2" d="M959.41,615.09V540.2a36.27,36.27,0,0,0-36.28-36.27H822C924.13,503.93,959.41,615.09,959.41,615.09Z"/><rect class="cls-5" x="798.17" y="497.16" width="105.91" height="6.78"/><path class="cls-5" d="M904.08,503.93V453.61A28.07,28.07,0,0,0,876,425.54H826.23a28,28,0,0,0-21.35,9.86h0c77.58-9.52,89.43,68.52,89.43,68.52Z"/><path class="cls-3" d="M567.06,811.72H500a9.23,9.23,0,0,1,0-18.46h67a9.23,9.23,0,1,1,0,18.46Z"/><path class="cls-3" d="M652.17,726.61a9.23,9.23,0,0,1-9.23-9.23V650.32a9.23,9.23,0,1,1,18.46,0v67.06A9.23,9.23,0,0,1,652.17,726.61Z"/><path class="cls-3" d="M590.64,750.19a9.24,9.24,0,0,1-6.53-2.71l-46.06-46.06a9.23,9.23,0,0,1,13.05-13.06l46.07,46.07a9.24,9.24,0,0,1-6.53,15.76Z"/><path class="cls-3" d="M1135.18,1019.4h67.06a9.23,9.23,0,0,1,0,18.46h-67.06a9.23,9.23,0,0,1,0-18.46Z"/><path class="cls-3" d="M1050.08,1104.5a9.24,9.24,0,0,1,9.23,9.24v67a9.24,9.24,0,0,1-18.47,0v-67A9.24,9.24,0,0,1,1050.08,1104.5Z"/><path class="cls-3" d="M1111.61,1080.93a9.23,9.23,0,0,1,6.53,2.7l46.06,46.07a9.23,9.23,0,0,1-13,13l-46.07-46.06a9.23,9.23,0,0,1,6.53-15.76Z"/><text class="cls-7" transform="translate(2266.54 1089.7)">404</text><text class="cls-8" transform="translate(2107.38 1356.68)">P</text><text class="cls-8" transform="translate(2221.33 1356.68)">a</text><text class="cls-8" transform="translate(2326.62 1356.68)">g</text><text class="cls-8" transform="translate(2435.35 1356.68)">e Not </text><text class="cls-8" transform="translate(2944.85 1356.68)">F</text><text class="cls-8" transform="translate(3047.39 1356.68)">ound</text></g></g></svg>