<svg xmlns="http://www.w3.org/2000/svg" xmlns:xlink="http://www.w3.org/1999/xlink" viewBox="0 0 933.1 793.32"><defs><style>.cls-1,.cls-10,.cls-12,.cls-13,.cls-14,.cls-15,.cls-16,.cls-17,.cls-18,.cls-19,.cls-20,.cls-21,.cls-22,.cls-23,.cls-24,.cls-25,.cls-26,.cls-27,.cls-28,.cls-4,.cls-5,.cls-6,.cls-7,.cls-8,.cls-9{fill:none;}.cls-2{clip-path:url(#clip-path);}.cls-3{fill:#ffaf00;}.cls-4{stroke:#000;stroke-width:2.52px;}.cls-10,.cls-12,.cls-15,.cls-16,.cls-17,.cls-18,.cls-21,.cls-24,.cls-4{stroke-miterlimit:10;}.cls-14,.cls-17,.cls-23,.cls-24,.cls-26,.cls-27,.cls-28,.cls-5,.cls-6,.cls-8{stroke:#010101;}.cls-13,.cls-14,.cls-19,.cls-20,.cls-22,.cls-23,.cls-25,.cls-26,.cls-27,.cls-28,.cls-5,.cls-6,.cls-7,.cls-8,.cls-9{stroke-linecap:round;stroke-linejoin:round;}.cls-12,.cls-13,.cls-17,.cls-5{stroke-width:2px;}.cls-6,.cls-7{stroke-width:1.65px;}.cls-10,.cls-12,.cls-13,.cls-15,.cls-16,.cls-18,.cls-19,.cls-20,.cls-21,.cls-22,.cls-25,.cls-7,.cls-9{stroke:#ffaf00;}.cls-8,.cls-9{stroke-width:1.15px;}.cls-10{stroke-width:1.77px;}.cls-11{fill:#010101;}.cls-14{stroke-width:3px;}.cls-15{stroke-width:2.37px;}.cls-16{stroke-width:1.66px;}.cls-18{stroke-width:1.71px;}.cls-20,.cls-21{stroke-width:6px;}.cls-22,.cls-23{stroke-width:15px;}.cls-24{stroke-width:2.56px;}.cls-25{stroke-width:10px;}.cls-26{stroke-width:8px;}.cls-27{stroke-width:4px;}.cls-28{stroke-width:2.29px;}</style><clipPath id="clip-path" transform="translate(27.27 154.66)"><rect class="cls-1" width="750" height="500"/></clipPath></defs><g id="Layer_2" data-name="Layer 2"><g id="OBJECTS"><g class="cls-2"><path class="cls-3" d="M575,46.87a26.27,26.27,0,0,1,0,37.39L537.22,46.87A26.88,26.88,0,0,1,575,46.87Z" transform="translate(27.27 154.66)"/><path class="cls-4" d="M554.53,101.63a26.27,26.27,0,0,1,0-37.39l37.75,37.39A26.88,26.88,0,0,1,554.53,101.63Z" transform="translate(27.27 154.66)"/><path class="cls-3" d="M204.3,220.87a26.26,26.26,0,0,1,0,37.39l-37.74-37.39A26.86,26.86,0,0,1,204.3,220.87Z" transform="translate(27.27 154.66)"/><path class="cls-4" d="M183.87,275.63a26.26,26.26,0,0,1,0-37.39l37.75,37.39A26.86,26.86,0,0,1,183.87,275.63Z" transform="translate(27.27 154.66)"/><path class="cls-3" d="M623.46,332a42.25,42.25,0,0,1,0,59.74L563.72,332A42.24,42.24,0,0,1,623.46,332Z" transform="translate(27.27 154.66)"/><path class="cls-5" d="M621.71,343.84a42.25,42.25,0,0,1,0,59.74L562,343.83A42.25,42.25,0,0,1,621.71,343.84Z" transform="translate(27.27 154.66)"/><line class="cls-6" x1="39.16" y1="596.57" x2="45.09" y2="602.5"/><line class="cls-6" x1="18.8" y1="576.21" x2="29.7" y2="587.11"/><line class="cls-6" x1="37.27" y1="577.53" x2="78.34" y2="618.59"/><line class="cls-6" x1="16.34" y1="556.59" x2="24.66" y2="564.91"/><line class="cls-7" x1="66.79" y1="589.88" x2="102.92" y2="626.01"/><line class="cls-7" x1="12.27" y1="535.36" x2="50.79" y2="573.88"/><line class="cls-6" x1="42.47" y1="548.4" x2="106.25" y2="612.18"/><line class="cls-6" x1="16.1" y1="522.03" x2="29.6" y2="535.53"/><line class="cls-6" x1="95.13" y1="583.9" x2="110.46" y2="599.22"/><line class="cls-6" x1="0.83" y1="489.6" x2="79.01" y2="567.77"/><line class="cls-7" x1="63.53" y1="535.14" x2="139.91" y2="611.52"/><line class="cls-7" x1="29.8" y1="501.41" x2="47.54" y2="519.15"/><line class="cls-6" x1="78.36" y1="532.8" x2="127.69" y2="582.14"/><line class="cls-6" x1="27.99" y1="482.43" x2="64.45" y2="518.89"/><line class="cls-7" x1="119.05" y1="556.33" x2="144.82" y2="582.1"/><line class="cls-7" x1="50.27" y1="487.55" x2="100.33" y2="537.61"/><line class="cls-6" x1="94.09" y1="514.21" x2="128.9" y2="549.02"/><line class="cls-6" x1="54.4" y1="474.52" x2="80.44" y2="500.56"/><line class="cls-7" x1="125.03" y1="527.99" x2="138.57" y2="541.53"/><line class="cls-7" x1="75.23" y1="478.19" x2="109.56" y2="512.52"/><line class="cls-6" x1="117.99" y1="503.79" x2="126.31" y2="512.11"/><line class="cls-6" x1="103.38" y1="489.18" x2="109.12" y2="494.92"/><line class="cls-8" x1="736.05" y1="259.34" x2="740.18" y2="263.48"/><line class="cls-8" x1="721.86" y1="245.15" x2="729.46" y2="252.75"/><line class="cls-8" x1="734.74" y1="246.07" x2="763.36" y2="274.69"/><line class="cls-8" x1="720.14" y1="231.47" x2="725.95" y2="237.28"/><line class="cls-9" x1="755.3" y1="254.68" x2="780.49" y2="279.86"/><line class="cls-9" x1="717.31" y1="216.68" x2="744.16" y2="243.53"/><line class="cls-8" x1="738.36" y1="225.77" x2="782.81" y2="270.22"/><line class="cls-8" x1="719.98" y1="207.39" x2="729.39" y2="216.8"/><line class="cls-8" x1="775.06" y1="250.51" x2="785.74" y2="261.19"/><line class="cls-8" x1="709.33" y1="184.78" x2="763.82" y2="239.27"/><line class="cls-9" x1="753.04" y1="216.53" x2="806.27" y2="269.76"/><line class="cls-9" x1="729.53" y1="193.02" x2="741.89" y2="205.38"/><line class="cls-8" x1="763.37" y1="214.9" x2="797.76" y2="249.28"/><line class="cls-8" x1="728.26" y1="179.79" x2="753.67" y2="205.2"/><line class="cls-9" x1="791.73" y1="231.3" x2="809.69" y2="249.26"/><line class="cls-9" x1="743.79" y1="183.36" x2="778.68" y2="218.25"/><line class="cls-8" x1="774.33" y1="201.94" x2="798.6" y2="226.2"/><line class="cls-8" x1="746.67" y1="174.28" x2="764.82" y2="192.42"/><line class="cls-9" x1="795.9" y1="211.54" x2="805.34" y2="220.98"/><line class="cls-9" x1="761.19" y1="176.83" x2="785.12" y2="200.76"/><line class="cls-8" x1="791" y1="194.68" x2="796.79" y2="200.48"/><line class="cls-8" x1="780.81" y1="184.49" x2="784.81" y2="188.49"/><rect class="cls-10" x="366.9" y="74.89" width="63.45" height="63.45" rx="1.72" transform="translate(219.41 -95.99) rotate(45)"/><circle class="cls-11" cx="426.76" cy="203.64" r="0.99"/><path class="cls-11" d="M411.2,60.7a1,1,0,1,1-1.41-1.41,1,1,0,0,1,1.41,1.41Z" transform="translate(27.27 154.66)"/><path class="cls-11" d="M422.2,71.7a1,1,0,1,1,0-1.4A1,1,0,0,1,422.2,71.7Z" transform="translate(27.27 154.66)"/><path class="cls-11" d="M433.21,82.71a1,1,0,0,1-1.41-1.41,1,1,0,0,1,1.41,1.41Z" transform="translate(27.27 154.66)"/><circle class="cls-11" cx="470.78" cy="247.66" r="0.99"/><path class="cls-11" d="M390.36,59.52a1,1,0,1,1,0-1.4A1,1,0,0,1,390.36,59.52Z" transform="translate(27.27 154.66)"/><circle class="cls-11" cx="427.93" cy="224.48" r="0.99"/><circle class="cls-11" cx="438.94" cy="235.49" r="0.99"/><circle class="cls-11" cx="449.94" cy="246.49" r="0.99"/><circle class="cls-11" cx="460.95" cy="257.5" r="0.99"/><path class="cls-11" d="M380.53,69.36A1,1,0,0,1,379.12,68a1,1,0,0,1,1.41,1.41Z" transform="translate(27.27 154.66)"/><circle class="cls-11" cx="418.1" cy="234.32" r="0.99"/><circle class="cls-11" cx="429.1" cy="245.32" r="0.99"/><circle class="cls-11" cx="440.11" cy="256.33" r="0.99"/><path class="cls-11" d="M424.55,113.38a1,1,0,0,1-1.41-1.41,1,1,0,1,1,1.41,1.41Z" transform="translate(27.27 154.66)"/><path class="cls-11" d="M370.69,79.19a1,1,0,1,1,0-1.4A1,1,0,0,1,370.69,79.19Z" transform="translate(27.27 154.66)"/><path class="cls-11" d="M381.7,90.2a1,1,0,1,1,0-1.41A1,1,0,0,1,381.7,90.2Z" transform="translate(27.27 154.66)"/><circle class="cls-11" cx="419.27" cy="255.16" r="0.99"/><path class="cls-11" d="M403.71,112.21a1,1,0,1,1,0-1.41A1,1,0,0,1,403.71,112.21Z" transform="translate(27.27 154.66)"/><path class="cls-11" d="M414.71,123.21a1,1,0,1,1,0-1.4A1,1,0,0,1,414.71,123.21Z" transform="translate(27.27 154.66)"/><path class="cls-11" d="M360.86,89a1,1,0,1,1-1.41-1.41A1,1,0,0,1,360.86,89Z" transform="translate(27.27 154.66)"/><circle class="cls-11" cx="398.43" cy="253.98" r="0.99"/><circle class="cls-11" cx="409.43" cy="264.99" r="0.99"/><circle class="cls-11" cx="420.44" cy="275.99" r="0.99"/><path class="cls-11" d="M404.88,133.05a1,1,0,0,1-1.41-1.41,1,1,0,1,1,1.41,1.41Z" transform="translate(27.27 154.66)"/><path class="cls-11" d="M351,98.86a1,1,0,1,1,0-1.4A1,1,0,0,1,351,98.86Z" transform="translate(27.27 154.66)"/><circle class="cls-11" cx="388.59" cy="263.82" r="0.99"/><circle class="cls-11" cx="399.6" cy="274.82" r="0.99"/><circle class="cls-11" cx="410.6" cy="285.83" r="0.99"/><path class="cls-11" d="M395,142.88a1,1,0,1,1,0-1.4A1,1,0,0,1,395,142.88Z" transform="translate(27.27 154.66)"/><rect class="cls-12" x="455" y="346.34" width="54.26" height="54.26" rx="1.47" transform="translate(991.52 901.6) rotate(180)"/><path class="cls-11" d="M513.93,409.68a.85.85,0,1,1,.85.85A.85.85,0,0,1,513.93,409.68Z" transform="translate(27.27 154.66)"/><path class="cls-11" d="M500.62,409.68a.85.85,0,1,1,.85.85A.85.85,0,0,1,500.62,409.68Z" transform="translate(27.27 154.66)"/><path class="cls-11" d="M487.31,409.68a.85.85,0,1,1,.85.85A.85.85,0,0,1,487.31,409.68Z" transform="translate(27.27 154.66)"/><path class="cls-11" d="M474,409.68a.85.85,0,1,1,.85.85A.85.85,0,0,1,474,409.68Z" transform="translate(27.27 154.66)"/><path class="cls-11" d="M460.69,409.68a.85.85,0,1,1,.85.85A.85.85,0,0,1,460.69,409.68Z" transform="translate(27.27 154.66)"/><path class="cls-11" d="M513.93,397.79a.85.85,0,1,1,.85.85A.85.85,0,0,1,513.93,397.79Z" transform="translate(27.27 154.66)"/><path class="cls-11" d="M500.62,397.79a.85.85,0,1,1,.85.85A.85.85,0,0,1,500.62,397.79Z" transform="translate(27.27 154.66)"/><path class="cls-11" d="M487.31,397.79a.85.85,0,1,1,.85.85A.85.85,0,0,1,487.31,397.79Z" transform="translate(27.27 154.66)"/><path class="cls-11" d="M474,397.79a.85.85,0,1,1,.85.85A.85.85,0,0,1,474,397.79Z" transform="translate(27.27 154.66)"/><path class="cls-11" d="M460.69,397.79a.85.85,0,1,1,.85.85A.85.85,0,0,1,460.69,397.79Z" transform="translate(27.27 154.66)"/><path class="cls-11" d="M513.93,385.89a.85.85,0,1,1,.85.85A.85.85,0,0,1,513.93,385.89Z" transform="translate(27.27 154.66)"/><circle class="cls-11" cx="528.74" cy="540.55" r="0.85"/><circle class="cls-11" cx="515.43" cy="540.55" r="0.85"/><path class="cls-11" d="M474,385.89a.85.85,0,1,1,.85.85A.85.85,0,0,1,474,385.89Z" transform="translate(27.27 154.66)"/><path class="cls-11" d="M460.69,385.89a.85.85,0,1,1,.85.85A.85.85,0,0,1,460.69,385.89Z" transform="translate(27.27 154.66)"/><path class="cls-11" d="M513.93,374a.85.85,0,1,1,.85.85A.85.85,0,0,1,513.93,374Z" transform="translate(27.27 154.66)"/><circle class="cls-11" cx="528.74" cy="528.66" r="0.85"/><circle class="cls-11" cx="515.43" cy="528.66" r="0.85"/><path class="cls-11" d="M474,374a.85.85,0,1,1,.85.85A.85.85,0,0,1,474,374Z" transform="translate(27.27 154.66)"/><path class="cls-11" d="M460.69,374a.85.85,0,1,1,.85.85A.85.85,0,0,1,460.69,374Z" transform="translate(27.27 154.66)"/><path class="cls-11" d="M513.93,362.11a.85.85,0,1,1,.85.85A.85.85,0,0,1,513.93,362.11Z" transform="translate(27.27 154.66)"/><circle class="cls-11" cx="528.74" cy="516.76" r="0.85"/><circle class="cls-11" cx="515.43" cy="516.76" r="0.85"/><path class="cls-11" d="M474,362.11a.85.85,0,1,1,.85.85A.85.85,0,0,1,474,362.11Z" transform="translate(27.27 154.66)"/><path class="cls-11" d="M460.69,362.11a.85.85,0,1,1,.85.85A.85.85,0,0,1,460.69,362.11Z" transform="translate(27.27 154.66)"/><path class="cls-11" d="M513.93,350.21a.85.85,0,1,1,.85.85A.85.85,0,0,1,513.93,350.21Z" transform="translate(27.27 154.66)"/><path class="cls-11" d="M500.62,350.21a.85.85,0,1,1,.85.85A.85.85,0,0,1,500.62,350.21Z" transform="translate(27.27 154.66)"/><path class="cls-11" d="M487.31,350.21a.85.85,0,1,1,.85.85A.85.85,0,0,1,487.31,350.21Z" transform="translate(27.27 154.66)"/><path class="cls-11" d="M474,350.21a.85.85,0,1,1,.85.85A.85.85,0,0,1,474,350.21Z" transform="translate(27.27 154.66)"/><path class="cls-11" d="M460.69,350.21a.85.85,0,1,1,.85.85A.85.85,0,0,1,460.69,350.21Z" transform="translate(27.27 154.66)"/><polyline class="cls-5" points="178.02 314.67 206.39 334.68 234.78 314.69"/><polyline class="cls-5" points="64.52 314.64 92.89 334.65 121.27 314.65 149.64 334.67"/><line class="cls-5" x1="7.78" y1="314.62" x2="36.14" y2="334.63"/><polyline class="cls-13" points="149.64 316.67 178.02 296.67 206.4 316.68 234.78 296.69"/><polyline class="cls-13" points="7.78 296.62 36.15 316.63 64.53 296.64 92.89 316.65 121.27 296.65"/><polyline class="cls-5" points="676.77 405.65 705.15 425.65 733.52 405.65 761.89 425.65 790.27 405.65 818.64 425.65 847.02 405.65 875.4 425.65 903.77 405.65"/><polyline class="cls-13" points="676.77 387.65 705.15 407.65 733.52 387.65 761.89 407.65 790.27 387.65 818.64 407.65 847.02 387.65 875.4 407.65 903.77 387.65"/><circle class="cls-3" cx="303.35" cy="606.07" r="28.5"/><circle class="cls-14" cx="293.1" cy="595.82" r="28.5"/><circle class="cls-14" cx="293.1" cy="595.82" r="13.75"/><circle class="cls-3" cx="82.6" cy="252.99" r="17.2"/><circle class="cls-5" cx="76.42" cy="246.8" r="17.2"/><rect class="cls-15" x="475.6" y="217.25" width="51.37" height="51.37" rx="1.39" transform="translate(2.31 580.28) rotate(-45)"/><rect class="cls-15" x="486.6" y="228.25" width="29.37" height="29.37" rx="0.8" transform="translate(2.31 580.28) rotate(-45)"/><rect class="cls-16" x="136.01" y="315.01" width="35.97" height="35.97" rx="0.98" transform="translate(-163.09 361.08) rotate(-45)"/><rect class="cls-11" x="143.72" y="322.72" width="20.57" height="20.57" rx="2.99" transform="translate(-163.09 361.08) rotate(-45)"/><rect class="cls-12" x="328.96" y="142.77" width="27.85" height="27.85" rx="0.76" transform="translate(16.89 443) rotate(-45)"/><rect class="cls-17" x="334.92" y="148.74" width="15.92" height="15.92" rx="2.31" transform="translate(16.89 443) rotate(-45)"/><rect class="cls-18" x="467.34" y="-14.89" width="36.92" height="36.92" rx="1" transform="translate(167.03 499.21) rotate(-45)"/><rect class="cls-11" x="475.24" y="-6.99" width="21.11" height="21.11" rx="0.57" transform="translate(167.03 499.21) rotate(-45)"/><line class="cls-5" x1="317.93" y1="496.31" x2="504.6" y2="682.99"/><line class="cls-5" x1="506.6" y1="285.65" x2="546.94" y2="325.99"/><line class="cls-5" x1="644.6" y1="242.65" x2="666.44" y2="264.49"/><line class="cls-13" x1="396.77" y1="134.15" x2="436.6" y2="173.99"/><line class="cls-13" x1="193.29" y1="560.81" x2="215.13" y2="582.64"/><line class="cls-13" x1="303.37" y1="304.22" x2="358.13" y2="358.97"/><line class="cls-13" x1="370.59" y1="579.64" x2="557.27" y2="766.32"/><line class="cls-13" x1="697.59" y1="605.64" x2="884.27" y2="792.32"/><line class="cls-5" x1="714.93" y1="475.31" x2="901.6" y2="661.99"/><line class="cls-13" x1="745.43" y1="484.81" x2="932.1" y2="671.49"/><line class="cls-13" x1="83.27" y1="25" x2="269.94" y2="211.68"/><line class="cls-5" x1="27.27" y1="1" x2="213.94" y2="187.68"/><polygon class="cls-11" points="435.3 381.48 417.27 399.51 399.24 381.48 385.09 395.62 403.13 413.65 385.09 431.69 399.24 445.83 417.27 427.8 435.3 445.83 449.44 431.69 431.41 413.65 449.44 395.62 435.3 381.48"/><polygon class="cls-13" points="432.96 367.81 414.93 385.85 396.9 367.81 382.76 381.96 400.79 399.99 382.76 418.02 396.9 432.16 414.93 414.13 432.96 432.16 447.11 418.02 429.08 399.99 447.11 381.96 432.96 367.81"/><polygon class="cls-11" points="169.26 198.66 161.27 206.66 153.27 198.66 147 204.93 155 212.93 147 220.92 153.27 227.19 161.27 219.2 169.26 227.19 175.53 220.92 167.54 212.93 175.53 204.93 169.26 198.66"/><polygon class="cls-19" points="168.23 192.6 160.23 200.59 152.24 192.6 145.97 198.87 153.96 206.87 144.47 213.86 150.74 220.13 160.23 213.14 168.23 221.13 174.5 214.86 166.5 206.87 174.5 198.87 168.23 192.6"/><polygon class="cls-11" points="623.63 408.51 615.63 416.51 607.64 408.51 601.37 414.78 609.36 422.78 601.37 430.77 607.64 437.05 615.63 429.05 623.63 437.05 629.9 430.77 621.91 422.78 629.9 414.78 623.63 408.51"/><polygon class="cls-19" points="622.6 402.45 614.6 410.45 606.61 402.45 600.33 408.72 608.33 416.72 598.83 423.71 605.11 429.98 614.6 422.99 622.6 430.98 628.87 424.71 620.87 416.72 628.87 408.72 622.6 402.45"/><polygon class="cls-3" points="235.81 520.44 276.53 484.27 272.57 542.4 235.81 520.44"/><polygon class="cls-5" points="228.1 507.15 271.43 474.15 263.1 531.82 228.1 507.15"/><path class="cls-5" d="M244.17,319.5c-.67.83-21.5,34.17-21.5,34.17l13.16,23.5Z" transform="translate(27.27 154.66)"/><polygon class="cls-5" points="228.1 507.15 249.93 508.32 271.43 474.15 228.1 507.15"/><polygon class="cls-3" points="662.56 337.97 715.37 324.63 685.07 374.39 662.56 337.97"/><polygon class="cls-5" points="661.84 322.62 715.51 313.3 681.54 360.64 661.84 322.62"/><path class="cls-5" d="M688.24,158.65c-1,.43-34.83,20.41-34.83,20.41l.86,26.93Z" transform="translate(27.27 154.66)"/><polygon class="cls-5" points="661.84 322.62 680.68 333.72 715.51 313.3 661.84 322.62"/><path class="cls-20" d="M272.64,283.55a17.75,17.75,0,0,1,25.1,25.1" transform="translate(27.27 154.66)"/><path class="cls-5" d="M272.87,283.31A17.76,17.76,0,0,1,298,308.42" transform="translate(27.27 154.66)"/><path class="cls-21" d="M509.76,79.12a17.75,17.75,0,1,1-25.1,25.1" transform="translate(27.27 154.66)"/><path class="cls-5" d="M510,79.35a17.75,17.75,0,1,1-25.1,25.1" transform="translate(27.27 154.66)"/><path class="cls-21" d="M130.76,520.32a17.75,17.75,0,0,1,25.1-25.1" transform="translate(27.27 154.66)"/><path class="cls-5" d="M130.52,520.08A17.75,17.75,0,1,1,155.63,495" transform="translate(27.27 154.66)"/><path class="cls-22" d="M436,187.32a17.75,17.75,0,0,1,31.37-16.61" transform="translate(27.27 154.66)"/><path class="cls-23" d="M272.82-9.69a17.76,17.76,0,0,1,25.11,25.11" transform="translate(27.27 154.66)"/><path class="cls-3" d="M593.93,477.75a9.61,9.61,0,0,1-6.8-16.4,13.13,13.13,0,1,0-18.57-18.57A9.61,9.61,0,1,1,555,429.19a32.35,32.35,0,0,1,45.75,45.75A9.58,9.58,0,0,1,593.93,477.75Z" transform="translate(27.27 154.66)"/><path class="cls-24" d="M599.69,472a9.62,9.62,0,0,1-6.79-16.41A13.13,13.13,0,1,0,574.33,437a9.61,9.61,0,0,1-13.59-13.59,32.35,32.35,0,0,1,45.75,45.75A9.59,9.59,0,0,1,599.69,472Z" transform="translate(27.27 154.66)"/><path class="cls-3" d="M288.86,125.4a1.92,1.92,0,0,1,1.68-2.14h0a1.92,1.92,0,0,1,2.14,1.68h0a1.92,1.92,0,0,1-1.67,2.14h-.24A1.92,1.92,0,0,1,288.86,125.4Zm-12.19,0a1.94,1.94,0,0,1-1.12-2.48h0a1.93,1.93,0,0,1,2.48-1.13h0a1.94,1.94,0,0,1,1.13,2.49h0a1.94,1.94,0,0,1-1.81,1.24h0A2.08,2.08,0,0,1,276.67,125.36Zm25.15-3.9a1.92,1.92,0,0,1,.49-2.68h0a1.92,1.92,0,0,1,2.67.49h0a1.93,1.93,0,0,1-.48,2.68h0a2,2,0,0,1-1.1.34h0A1.91,1.91,0,0,1,301.82,121.46Zm-37-4.29a1.93,1.93,0,0,1,.15-2.72h0a1.93,1.93,0,0,1,2.73.16h0a1.93,1.93,0,0,1-.17,2.72h0a1.88,1.88,0,0,1-1.27.49h0A1.9,1.9,0,0,1,264.79,117.17ZM311.47,112a1.93,1.93,0,0,1-.81-2.61h0a1.93,1.93,0,0,1,2.6-.81h0a1.93,1.93,0,0,1,.81,2.6h0a1.94,1.94,0,0,1-1.71,1h0A2,2,0,0,1,311.47,112Zm-53.42-7.56a1.93,1.93,0,0,1,1.41-2.33h0a1.92,1.92,0,0,1,2.33,1.41h0a1.93,1.93,0,0,1-1.4,2.33h0a1.93,1.93,0,0,1-.47,0h0A1.94,1.94,0,0,1,258.05,104.4Zm55.61-7.27v0h0V97h0a1.93,1.93,0,0,1,1.92-1.93h0A1.92,1.92,0,0,1,317.51,97h0v.06h0v.06h0a1.92,1.92,0,0,1-1.92,1.92h0A1.92,1.92,0,0,1,313.66,97.13Zm-54.22-4.84A1.93,1.93,0,0,1,258,90h0a1.94,1.94,0,0,1,2.33-1.42h0a1.93,1.93,0,0,1,1.42,2.33h0a1.94,1.94,0,0,1-1.87,1.47h0A1.82,1.82,0,0,1,259.44,92.29Zm51.17-7.48a1.92,1.92,0,0,1,.8-2.6h0A1.93,1.93,0,0,1,314,83h0a1.93,1.93,0,0,1-.8,2.61h0a1.83,1.83,0,0,1-.9.23h0A1.92,1.92,0,0,1,310.61,84.81Zm-45.73-4.92a1.92,1.92,0,0,1-.17-2.71h0a1.92,1.92,0,0,1,2.72-.18h0a1.94,1.94,0,0,1,.17,2.72h0a1.92,1.92,0,0,1-1.45.65h0A1.94,1.94,0,0,1,264.88,79.89Zm37.34-4.48a1.93,1.93,0,0,1-.5-2.68h0a1.94,1.94,0,0,1,2.68-.49h0a1.93,1.93,0,0,1,.5,2.68h0a1.93,1.93,0,0,1-1.59.83h0A1.92,1.92,0,0,1,302.22,75.41Zm-26.77-4a1.92,1.92,0,0,1,1.11-2.48h0a1.93,1.93,0,0,1,2.49,1.11h0a1.92,1.92,0,0,1-1.11,2.48h0a1.87,1.87,0,0,1-.69.13h0A1.94,1.94,0,0,1,275.45,71.42Zm15-.43a1.93,1.93,0,0,1-1.69-2.14h0a1.93,1.93,0,0,1,2.14-1.69h0a1.92,1.92,0,0,1,1.68,2.14h0a1.91,1.91,0,0,1-1.9,1.7h-.23Z" transform="translate(27.27 154.66)"/><path class="cls-3" d="M288.59,120.26A1.58,1.58,0,0,1,290,118.5h0a1.58,1.58,0,0,1,1.75,1.38h0a1.56,1.56,0,0,1-1.37,1.75h-.19A1.56,1.56,0,0,1,288.59,120.26Zm-10,0a1.57,1.57,0,0,1-.91-2h0a1.56,1.56,0,0,1,2-.92h0a1.59,1.59,0,0,1,.92,2h0a1.6,1.6,0,0,1-1.48,1h0A1.58,1.58,0,0,1,278.61,120.23ZM299.19,117a1.57,1.57,0,0,1,.39-2.19h0a1.58,1.58,0,0,1,2.2.39h0a1.59,1.59,0,0,1-.4,2.2h0a1.57,1.57,0,0,1-.9.28h0A1.56,1.56,0,0,1,299.19,117Zm-30.3-3.52a1.57,1.57,0,0,1,.13-2.22h0a1.57,1.57,0,0,1,2.22.13h0a1.58,1.58,0,0,1-.13,2.23h0a1.6,1.6,0,0,1-1,.4h0A1.54,1.54,0,0,1,268.89,113.52Zm38.19-4.26a1.57,1.57,0,0,1-.66-2.13h0a1.57,1.57,0,0,1,2.13-.66h0a1.57,1.57,0,0,1,.66,2.12h0a1.59,1.59,0,0,1-1.4.85h0A1.58,1.58,0,0,1,307.08,109.26Zm-43.7-6.18a1.58,1.58,0,0,1,1.15-1.91h0a1.57,1.57,0,0,1,1.91,1.15h0a1.59,1.59,0,0,1-1.16,1.91h0a1.58,1.58,0,0,1-.38,0h0A1.57,1.57,0,0,1,263.38,103.08Zm45.49-6h0v0h0s0,0,0-.06h0a1.58,1.58,0,0,1,1.58-1.58h0A1.57,1.57,0,0,1,312,97h0v0h0v0h0a1.57,1.57,0,0,1-1.57,1.58h0A1.58,1.58,0,0,1,308.87,97.13Zm-44.36-4a1.57,1.57,0,0,1-1.15-1.9h0a1.59,1.59,0,0,1,1.91-1.16h0A1.58,1.58,0,0,1,266.42,92h0a1.58,1.58,0,0,1-1.53,1.2h0A1.24,1.24,0,0,1,264.51,93.17Zm41.87-6.12a1.57,1.57,0,0,1,.65-2.13h0a1.57,1.57,0,0,1,2.13.65h0a1.57,1.57,0,0,1-.65,2.13h0a1.51,1.51,0,0,1-.74.19h0A1.58,1.58,0,0,1,306.38,87.05ZM269,83a1.57,1.57,0,0,1-.13-2.22h0a1.57,1.57,0,0,1,2.22-.14h0a1.59,1.59,0,0,1,.14,2.23h0a1.59,1.59,0,0,1-1.19.53h0A1.56,1.56,0,0,1,269,83Zm30.55-3.66a1.56,1.56,0,0,1-.4-2.19h0a1.57,1.57,0,0,1,2.19-.41h0a1.57,1.57,0,0,1,.41,2.19h0a1.57,1.57,0,0,1-1.3.69h0A1.59,1.59,0,0,1,299.51,79.36ZM277.62,76.1a1.58,1.58,0,0,1,.9-2h0a1.58,1.58,0,0,1,2,.91h0a1.59,1.59,0,0,1-.91,2h0a1.62,1.62,0,0,1-.56.1h0A1.55,1.55,0,0,1,277.62,76.1Zm12.26-.36A1.58,1.58,0,0,1,288.49,74h0a1.57,1.57,0,0,1,1.75-1.38h0a1.57,1.57,0,0,1,1.38,1.75h0a1.57,1.57,0,0,1-1.56,1.39h-.18Z" transform="translate(27.27 154.66)"/><path class="cls-3" d="M288.35,115.87a1.27,1.27,0,0,1,1.11-1.42h0a1.28,1.28,0,0,1,1.43,1.11h0a1.28,1.28,0,0,1-1.12,1.42h-.16A1.28,1.28,0,0,1,288.35,115.87Zm-8.08,0h0a1.27,1.27,0,0,1-.74-1.64h0a1.27,1.27,0,0,1,1.64-.75h0a1.29,1.29,0,0,1,.75,1.65h0a1.28,1.28,0,0,1-1.2.82h0A1.16,1.16,0,0,1,280.27,115.84Zm16.67-2.58a1.27,1.27,0,0,1,.32-1.78h0a1.29,1.29,0,0,1,1.78.32h0a1.29,1.29,0,0,1-.32,1.78h0a1.34,1.34,0,0,1-.74.23h0A1.25,1.25,0,0,1,296.94,113.26Zm-24.55-2.85a1.28,1.28,0,0,1,.1-1.8h0a1.28,1.28,0,0,1,1.81.11h0a1.27,1.27,0,0,1-.11,1.8h0a1.28,1.28,0,0,1-.84.32h0A1.25,1.25,0,0,1,272.39,110.41ZM303.33,107a1.28,1.28,0,0,1-.53-1.73h0a1.27,1.27,0,0,1,1.72-.53h0a1.27,1.27,0,0,1,.54,1.72h0a1.29,1.29,0,0,1-1.14.68h0A1.42,1.42,0,0,1,303.33,107Zm-35.4-5a1.27,1.27,0,0,1,.93-1.55h0a1.29,1.29,0,0,1,1.55.93h0a1.29,1.29,0,0,1-.94,1.55h0a1.08,1.08,0,0,1-.3,0h0A1.27,1.27,0,0,1,267.93,102Zm36.86-4.82v0h0v0h0a1.26,1.26,0,0,1,1.27-1.28h0a1.26,1.26,0,0,1,1.28,1.27h0v0h0v0h0a1.28,1.28,0,0,1-1.27,1.28h0A1.28,1.28,0,0,1,304.79,97.13Zm-35.94-3.21a1.27,1.27,0,0,1-.94-1.54h0a1.28,1.28,0,0,1,1.54-.94h0a1.29,1.29,0,0,1,.94,1.55h0a1.27,1.27,0,0,1-1.24,1h0A1,1,0,0,1,268.85,93.92Zm33.92-5a1.26,1.26,0,0,1,.52-1.72h0a1.28,1.28,0,0,1,1.73.53h0a1.26,1.26,0,0,1-.53,1.72h0a1.16,1.16,0,0,1-.6.15h0A1.25,1.25,0,0,1,302.77,89ZM272.45,85.7a1.27,1.27,0,0,1-.11-1.8h0a1.27,1.27,0,0,1,1.8-.11h0a1.27,1.27,0,0,1,.11,1.8h0a1.28,1.28,0,0,1-.95.43h0A1.24,1.24,0,0,1,272.45,85.7Zm24.75-3h0a1.28,1.28,0,0,1-.33-1.77h0a1.28,1.28,0,0,1,1.78-.33h0A1.27,1.27,0,0,1,299,82.4h0a1.26,1.26,0,0,1-1.05.56h0A1.34,1.34,0,0,1,297.2,82.73Zm-17.74-2.64a1.28,1.28,0,0,1,.74-1.65h0a1.28,1.28,0,0,1,1.65.74h0a1.29,1.29,0,0,1-.74,1.65h0a1.21,1.21,0,0,1-.46.08h0A1.28,1.28,0,0,1,279.46,80.09Zm9.94-.29a1.3,1.3,0,0,1-1.13-1.42h0a1.27,1.27,0,0,1,1.42-1.11h0a1.27,1.27,0,0,1,1.12,1.41h0a1.27,1.27,0,0,1-1.27,1.13h-.14Z" transform="translate(27.27 154.66)"/><path class="cls-3" d="M66.44,276.29a1.8,1.8,0,0,1,1.57-2h0a1.8,1.8,0,0,1,2,1.58h0a1.81,1.81,0,0,1-1.57,2h0l-.23,0h0A1.8,1.8,0,0,1,66.44,276.29Zm-11.43,0a1.81,1.81,0,0,1-1-2.33h0a1.8,1.8,0,0,1,2.32-1.05h0a1.81,1.81,0,0,1,1.06,2.33h0a1.83,1.83,0,0,1-1.69,1.17h0A1.81,1.81,0,0,1,55,276.25Zm23.57-3.65a1.82,1.82,0,0,1,.46-2.52h0a1.81,1.81,0,0,1,2.51.46h0a1.82,1.82,0,0,1-.45,2.52h0a1.89,1.89,0,0,1-1,.32h0A1.79,1.79,0,0,1,78.58,272.6Zm-34.71-4A1.8,1.8,0,0,1,44,266h0a1.83,1.83,0,0,1,2.56.15h0a1.81,1.81,0,0,1-.15,2.55h0a1.79,1.79,0,0,1-1.2.46h0A1.78,1.78,0,0,1,43.87,268.57Zm43.75-4.88a1.81,1.81,0,0,1-.75-2.45h0a1.8,1.8,0,0,1,2.43-.75h0a1.79,1.79,0,0,1,.76,2.43h0a1.8,1.8,0,0,1-1.6,1h0A1.82,1.82,0,0,1,87.62,263.69ZM37.55,256.6a1.82,1.82,0,0,1,1.33-2.18h0a1.8,1.8,0,0,1,2.18,1.32h0a1.81,1.81,0,0,1-1.32,2.18h0a1.61,1.61,0,0,1-.44.06h0A1.83,1.83,0,0,1,37.55,256.6Zm52.13-6.81v0h0v-.05h0a1.8,1.8,0,0,1,1.8-1.81h0a1.79,1.79,0,0,1,1.81,1.79h0v.06h0v.06h0a1.79,1.79,0,0,1-1.8,1.8h0A1.8,1.8,0,0,1,89.68,249.79Zm-50.82-4.53a1.8,1.8,0,0,1-1.33-2.18h0a1.8,1.8,0,0,1,2.18-1.33h0A1.81,1.81,0,0,1,41,243.93h0a1.8,1.8,0,0,1-1.76,1.38h0A2,2,0,0,1,38.86,245.26Zm48-7a1.8,1.8,0,0,1,.75-2.44h0a1.8,1.8,0,0,1,2.44.75h0a1.8,1.8,0,0,1-.75,2.44h0a1.72,1.72,0,0,1-.84.21h0A1.8,1.8,0,0,1,86.82,238.24ZM44,233.63a1.81,1.81,0,0,1-.15-2.55h0a1.8,1.8,0,0,1,2.54-.16h0a1.81,1.81,0,0,1,.17,2.55h0a1.81,1.81,0,0,1-1.36.61h0A1.83,1.83,0,0,1,44,233.63Zm35-4.2a1.79,1.79,0,0,1-.47-2.51h0a1.8,1.8,0,0,1,2.51-.46h0a1.81,1.81,0,0,1,.47,2.51h0a1.81,1.81,0,0,1-1.49.78h0A1.76,1.76,0,0,1,79,229.43Zm-25.09-3.74a1.8,1.8,0,0,1,1-2.33h0a1.81,1.81,0,0,1,2.33,1h0a1.8,1.8,0,0,1-1,2.33h0a1.66,1.66,0,0,1-.65.12h0A1.8,1.8,0,0,1,53.87,225.69Zm14-.41a1.79,1.79,0,0,1-1.58-2h0a1.8,1.8,0,0,1,2-1.58h0a1.79,1.79,0,0,1,1.58,2h0a1.79,1.79,0,0,1-1.78,1.6h0Z" transform="translate(27.27 154.66)"/><path class="cls-3" d="M66.18,271.47a1.46,1.46,0,0,1,1.29-1.64h0a1.48,1.48,0,0,1,1.64,1.28h0a1.48,1.48,0,0,1-1.29,1.65h-.18A1.48,1.48,0,0,1,66.18,271.47Zm-9.35,0a1.47,1.47,0,0,1-.86-1.9h0a1.46,1.46,0,0,1,1.9-.86h0a1.46,1.46,0,0,1,.86,1.9h0a1.47,1.47,0,0,1-1.38.95h0A1.58,1.58,0,0,1,56.83,271.44Zm19.28-3a1.48,1.48,0,0,1,.38-2.05h0a1.47,1.47,0,0,1,2.05.37h0a1.48,1.48,0,0,1-.37,2.06h0a1.54,1.54,0,0,1-.84.26h0A1.5,1.5,0,0,1,76.11,268.45Zm-28.4-3.29a1.48,1.48,0,0,1,.13-2.09h0a1.48,1.48,0,0,1,2.08.12h0a1.48,1.48,0,0,1-.12,2.09h0a1.49,1.49,0,0,1-1,.38h0A1.48,1.48,0,0,1,47.71,265.16Zm35.8-4a1.49,1.49,0,0,1-.62-2h0a1.48,1.48,0,0,1,2-.62h0a1.48,1.48,0,0,1,.62,2h0a1.48,1.48,0,0,1-1.31.8h0A1.56,1.56,0,0,1,83.51,261.16Zm-41-5.79a1.47,1.47,0,0,1,1.07-1.79h0a1.48,1.48,0,0,1,1.8,1.08h0a1.48,1.48,0,0,1-1.09,1.78h0a1.39,1.39,0,0,1-.35,0h0A1.46,1.46,0,0,1,42.55,255.37Zm42.64-5.58h0v0h0s0,0,0,0h0a1.49,1.49,0,0,1,1.48-1.49h0a1.48,1.48,0,0,1,1.48,1.48h0v0h0v0h0a1.48,1.48,0,0,1-1.48,1.48h0A1.48,1.48,0,0,1,85.19,249.79Zm-41.58-3.71a1.47,1.47,0,0,1-1.08-1.79h0a1.49,1.49,0,0,1,1.79-1.08h0A1.48,1.48,0,0,1,45.4,245h0A1.48,1.48,0,0,1,44,246.12h0A1.45,1.45,0,0,1,43.61,246.08Zm39.24-5.74a1.48,1.48,0,0,1,.62-2h0a1.47,1.47,0,0,1,2,.62h0a1.46,1.46,0,0,1-.61,2h0a1.45,1.45,0,0,1-.69.18h0A1.49,1.49,0,0,1,82.85,240.34Zm-35.07-3.77a1.47,1.47,0,0,1-.12-2.09h0a1.47,1.47,0,0,1,2.08-.13h0a1.48,1.48,0,0,1,.13,2.09h0a1.49,1.49,0,0,1-1.11.5h0A1.51,1.51,0,0,1,47.78,236.57Zm28.64-3.43a1.49,1.49,0,0,1-.38-2.06h0a1.47,1.47,0,0,1,2-.38h0a1.48,1.48,0,0,1,.39,2.05h0a1.47,1.47,0,0,1-1.22.64h0A1.52,1.52,0,0,1,76.42,233.14Zm-20.53-3.07a1.47,1.47,0,0,1,.85-1.9h0a1.48,1.48,0,0,1,1.91.85h0a1.49,1.49,0,0,1-.85,1.91h0a1.6,1.6,0,0,1-.53.09h0A1.48,1.48,0,0,1,55.89,230.07Zm11.5-.33a1.48,1.48,0,0,1-1.3-1.64h0a1.47,1.47,0,0,1,1.64-1.29h0A1.46,1.46,0,0,1,69,228.44h0a1.48,1.48,0,0,1-1.46,1.31h-.17Z" transform="translate(27.27 154.66)"/><path class="cls-3" d="M66,267.35A1.21,1.21,0,0,1,67,266h0a1.2,1.2,0,0,1,1.33,1.05h0a1.2,1.2,0,0,1-1,1.33h-.14A1.21,1.21,0,0,1,66,267.35Zm-7.57,0h0a1.19,1.19,0,0,1-.69-1.54h0a1.2,1.2,0,0,1,1.54-.7h0a1.21,1.21,0,0,1,.7,1.54h0a1.21,1.21,0,0,1-1.12.78h0A1.26,1.26,0,0,1,58.38,267.33ZM74,264.91a1.2,1.2,0,0,1,.3-1.67h0a1.2,1.2,0,0,1,1.66.3h0a1.2,1.2,0,0,1-.3,1.67h0a1.21,1.21,0,0,1-.68.21h0A1.17,1.17,0,0,1,74,264.91Zm-23-2.67a1.2,1.2,0,0,1,.09-1.69h0a1.2,1.2,0,0,1,1.69.1h0a1.2,1.2,0,0,1-.09,1.69h0a1.23,1.23,0,0,1-.8.3h0A1.16,1.16,0,0,1,51,262.24ZM80,259a1.2,1.2,0,0,1-.5-1.62h0a1.19,1.19,0,0,1,1.61-.5h0a1.19,1.19,0,0,1,.51,1.61h0a1.21,1.21,0,0,1-1.07.65h0A1.25,1.25,0,0,1,80,259Zm-33.19-4.69a1.19,1.19,0,0,1,.88-1.45h0a1.21,1.21,0,0,1,1.45.87h0a1.21,1.21,0,0,1-.88,1.45h0l-.29,0h0A1.2,1.2,0,0,1,46.81,254.31Zm34.56-4.52v0h0v0h0a1.19,1.19,0,0,1,1.19-1.2h0a1.19,1.19,0,0,1,1.2,1.19h0v0h0v0h0a1.19,1.19,0,0,1-1.2,1.19h0A1.19,1.19,0,0,1,81.37,249.79Zm-33.7-3a1.2,1.2,0,0,1-.88-1.44h0a1.2,1.2,0,0,1,1.45-.88h0a1.21,1.21,0,0,1,.88,1.45h0a1.2,1.2,0,0,1-1.16.91h0A1,1,0,0,1,47.67,246.78Zm31.8-4.65a1.19,1.19,0,0,1,.49-1.61h0a1.2,1.2,0,0,1,1.62.49h0a1.2,1.2,0,0,1-.49,1.62h0a1.15,1.15,0,0,1-.57.14h0A1.18,1.18,0,0,1,79.47,242.13Zm-28.41-3a1.19,1.19,0,0,1-.11-1.69h0a1.19,1.19,0,0,1,1.69-.11h0a1.2,1.2,0,0,1,.1,1.69h0a1.19,1.19,0,0,1-.9.41h0A1.16,1.16,0,0,1,51.06,239.08Zm23.19-2.78h0a1.2,1.2,0,0,1-.3-1.67h0a1.2,1.2,0,0,1,1.66-.31h0a1.2,1.2,0,0,1,.31,1.66h0a1.18,1.18,0,0,1-1,.53h0A1.32,1.32,0,0,1,74.25,236.3Zm-16.63-2.48a1.21,1.21,0,0,1,.69-1.55h0a1.2,1.2,0,0,1,1.55.69h0a1.21,1.21,0,0,1-.69,1.55h0a1.31,1.31,0,0,1-.43.08h0A1.22,1.22,0,0,1,57.62,233.82Zm9.32-.27a1.21,1.21,0,0,1-1.06-1.33h0a1.2,1.2,0,0,1,1.33-1.05h0a1.19,1.19,0,0,1,1.05,1.33h0a1.18,1.18,0,0,1-1.19,1.05h-.13Z" transform="translate(27.27 154.66)"/><path class="cls-3" d="M414.34,369a1.93,1.93,0,0,1-1-2.53h0a1.92,1.92,0,0,1,2.53-1h0a1.94,1.94,0,0,1,1,2.53h0l-.11.21h0A1.93,1.93,0,0,1,414.34,369Z" transform="translate(27.27 154.66)"/><path class="cls-11" d="M408.19,379.52a1.92,1.92,0,0,1-2.71-.28h0a1.91,1.91,0,0,1,.28-2.7h0a1.93,1.93,0,0,1,2.71.27h0a1.94,1.94,0,0,1,.17,2.19h0A1.83,1.83,0,0,1,408.19,379.52Z" transform="translate(27.27 154.66)"/><path class="cls-11" d="M417.44,355.82a1.93,1.93,0,0,1-2.07-1.77h0a1.91,1.91,0,0,1,1.76-2.07h0a1.93,1.93,0,0,1,2.08,1.76h0a1.92,1.92,0,0,1-.26,1.12h0A1.9,1.9,0,0,1,417.44,355.82Z" transform="translate(27.27 154.66)"/><path class="cls-11" d="M395.14,385.69a1.92,1.92,0,0,1-2.27-1.5h0a1.93,1.93,0,0,1,1.5-2.27h0a1.93,1.93,0,0,1,2.28,1.5h0a1.9,1.9,0,0,1-.22,1.35h0A1.91,1.91,0,0,1,395.14,385.69Z" transform="translate(27.27 154.66)"/><path class="cls-11" d="M414.06,342.7a1.92,1.92,0,0,1-2.66-.61h0a1.92,1.92,0,0,1,.61-2.65h0a1.92,1.92,0,0,1,2.65.6h0a1.92,1.92,0,0,1,0,2h0A1.92,1.92,0,0,1,414.06,342.7Z" transform="translate(27.27 154.66)"/><path class="cls-3" d="M380.72,385.11a1.93,1.93,0,0,1-1.31-2.39h0a1.94,1.94,0,0,1,2.39-1.31h0a1.94,1.94,0,0,1,1.31,2.39h0a2.08,2.08,0,0,1-.19.43h0A1.92,1.92,0,0,1,380.72,385.11Z" transform="translate(27.27 154.66)"/><path class="cls-3" d="M402.34,333.36l0,0h0l0,0h0a1.91,1.91,0,0,1-.71-2.63h0a1.92,1.92,0,0,1,2.62-.71h0l.06,0h0l0,0h0a1.93,1.93,0,0,1,.7,2.63h0A1.92,1.92,0,0,1,402.34,333.36Z" transform="translate(27.27 154.66)"/><path class="cls-11" d="M370.94,377.83a1.92,1.92,0,0,1-2.72.06h0a1.93,1.93,0,0,1-.06-2.72h0a1.94,1.94,0,0,1,2.73-.06h0a1.93,1.93,0,0,1,.33,2.36h0A1.35,1.35,0,0,1,370.94,377.83Z" transform="translate(27.27 154.66)"/><path class="cls-3" d="M390.15,329.82a1.92,1.92,0,0,1-1.85-2h0a1.93,1.93,0,0,1,2-1.85h0a1.93,1.93,0,0,1,1.86,2h0a1.89,1.89,0,0,1-.26.89h0A1.92,1.92,0,0,1,390.15,329.82Z" transform="translate(27.27 154.66)"/><path class="cls-11" d="M363,366.91a1.94,1.94,0,0,1-2.44-1.22h0a1.93,1.93,0,0,1,1.22-2.44h0a1.94,1.94,0,0,1,2.44,1.22h0a1.93,1.93,0,0,1-.17,1.58h0A2,2,0,0,1,363,366.91Z" transform="translate(27.27 154.66)"/><path class="cls-11" d="M377.81,332.36a1.93,1.93,0,0,1-2.57-.91h0a1.94,1.94,0,0,1,.92-2.57h0a1.94,1.94,0,0,1,2.57.91h0a1.94,1.94,0,0,1-.08,1.8h0A2,2,0,0,1,377.81,332.36Z" transform="translate(27.27 154.66)"/><path class="cls-11" d="M360.93,353.51a1.92,1.92,0,0,1-1.59-2.21h0a1.92,1.92,0,0,1,2.21-1.59h0a1.92,1.92,0,0,1,1.59,2.2h0a1.85,1.85,0,0,1-.24.67h0A1.93,1.93,0,0,1,360.93,353.51Z" transform="translate(27.27 154.66)"/><path class="cls-3" d="M368.07,340.33a1.93,1.93,0,0,1-2.7.39h0A1.93,1.93,0,0,1,365,338h0a1.92,1.92,0,0,1,2.69-.38h0a1.92,1.92,0,0,1,.52,2.5h0C368.16,340.21,368.11,340.27,368.07,340.33Z" transform="translate(27.27 154.66)"/><path class="cls-11" d="M409.76,366.66a1.58,1.58,0,0,1-.83-2.07h0a1.58,1.58,0,0,1,2.07-.83h0a1.59,1.59,0,0,1,.83,2.07h0a.91.91,0,0,1-.09.17h0A1.57,1.57,0,0,1,409.76,366.66Z" transform="translate(27.27 154.66)"/><path class="cls-11" d="M404.72,375.27a1.56,1.56,0,0,1-2.21-.23h0a1.56,1.56,0,0,1,.23-2.21h0a1.57,1.57,0,0,1,2.21.22h0a1.57,1.57,0,0,1,.14,1.79h0A1.37,1.37,0,0,1,404.72,375.27Z" transform="translate(27.27 154.66)"/><path class="cls-11" d="M412.3,355.88a1.59,1.59,0,0,1-1.7-1.45h0a1.58,1.58,0,0,1,1.44-1.7h0a1.58,1.58,0,0,1,1.7,1.45h0a1.64,1.64,0,0,1-.21.91h0A1.58,1.58,0,0,1,412.3,355.88Z" transform="translate(27.27 154.66)"/><path class="cls-11" d="M394.05,380.32a1.58,1.58,0,0,1-1.86-1.23h0a1.59,1.59,0,0,1,1.23-1.86h0a1.59,1.59,0,0,1,1.86,1.23h0a1.58,1.58,0,0,1-.18,1.11h0A1.61,1.61,0,0,1,394.05,380.32Z" transform="translate(27.27 154.66)"/><path class="cls-3" d="M409.53,345.14a1.58,1.58,0,0,1-2.18-.5h0a1.58,1.58,0,0,1,.5-2.17h0a1.58,1.58,0,0,1,2.17.5h0a1.59,1.59,0,0,1,0,1.63h0A1.49,1.49,0,0,1,409.53,345.14Z" transform="translate(27.27 154.66)"/><path class="cls-11" d="M382.25,379.84a1.56,1.56,0,0,1-1.07-1.95h0a1.57,1.57,0,0,1,1.95-1.08h0a1.58,1.58,0,0,1,1.07,2h0a1.84,1.84,0,0,1-.15.35h0A1.57,1.57,0,0,1,382.25,379.84Z" transform="translate(27.27 154.66)"/><path class="cls-11" d="M399.93,337.5h0l-.05,0h0a1.58,1.58,0,0,1-.58-2.15h0a1.57,1.57,0,0,1,2.15-.58h0l.05,0h0l0,0h0a1.57,1.57,0,0,1,.57,2.15h0A1.57,1.57,0,0,1,399.93,337.5Z" transform="translate(27.27 154.66)"/><path class="cls-11" d="M374.25,373.89a1.57,1.57,0,0,1-2.23,0h0a1.58,1.58,0,0,1,0-2.23h0a1.58,1.58,0,0,1,2.23,0h0a1.59,1.59,0,0,1,.27,1.93h0A2.17,2.17,0,0,1,374.25,373.89Z" transform="translate(27.27 154.66)"/><path class="cls-11" d="M390,334.61a1.58,1.58,0,0,1-1.51-1.64h0a1.58,1.58,0,0,1,1.63-1.52h0a1.58,1.58,0,0,1,1.52,1.64h0a1.63,1.63,0,0,1-.21.73h0A1.6,1.6,0,0,1,390,334.61Z" transform="translate(27.27 154.66)"/><path class="cls-3" d="M367.7,365a1.56,1.56,0,0,1-2-1h0a1.56,1.56,0,0,1,1-2h0a1.58,1.58,0,0,1,2,1h0a1.63,1.63,0,0,1-.14,1.3h0A1.61,1.61,0,0,1,367.7,365Z" transform="translate(27.27 154.66)"/><path class="cls-11" d="M379.87,336.68a1.57,1.57,0,0,1-2.1-.75h0a1.56,1.56,0,0,1,.75-2.09h0a1.58,1.58,0,0,1,2.1.74h0a1.59,1.59,0,0,1-.06,1.47h0A1.56,1.56,0,0,1,379.87,336.68Z" transform="translate(27.27 154.66)"/><path class="cls-11" d="M366.06,354a1.59,1.59,0,0,1-1.31-1.81h0a1.57,1.57,0,0,1,1.81-1.3h0a1.58,1.58,0,0,1,1.31,1.8h0a1.83,1.83,0,0,1-.2.54h0A1.57,1.57,0,0,1,366.06,354Z" transform="translate(27.27 154.66)"/><path class="cls-11" d="M371.9,343.2a1.58,1.58,0,0,1-2.21.32h0a1.57,1.57,0,0,1-.31-2.21h0a1.58,1.58,0,0,1,2.2-.31h0a1.57,1.57,0,0,1,.42,2.05h0A.78.78,0,0,1,371.9,343.2Z" transform="translate(27.27 154.66)"/><path class="cls-11" d="M405.84,364.66a1.27,1.27,0,0,1-.67-1.67h0a1.28,1.28,0,0,1,1.68-.68h0a1.29,1.29,0,0,1,.67,1.68h0c0,.05,0,.1-.07.14h0A1.28,1.28,0,0,1,405.84,364.66Z" transform="translate(27.27 154.66)"/><path class="cls-11" d="M401.76,371.64h0a1.27,1.27,0,0,1-1.79-.19h0a1.26,1.26,0,0,1,.18-1.79h0a1.28,1.28,0,0,1,1.8.18h0a1.29,1.29,0,0,1,.11,1.45h0A1.1,1.1,0,0,1,401.76,371.64Z" transform="translate(27.27 154.66)"/><path class="cls-11" d="M407.9,355.92a1.28,1.28,0,0,1-1.38-1.17h0a1.28,1.28,0,0,1,1.17-1.37h0a1.28,1.28,0,0,1,1.38,1.17h0a1.26,1.26,0,0,1-.18.74h0A1.24,1.24,0,0,1,407.9,355.92Z" transform="translate(27.27 154.66)"/><path class="cls-3" d="M393.11,375.73a1.27,1.27,0,0,1-1.5-1h0a1.27,1.27,0,0,1,1-1.5h0a1.27,1.27,0,0,1,1.51,1h0a1.24,1.24,0,0,1-.15.89h0A1.25,1.25,0,0,1,393.11,375.73Z" transform="translate(27.27 154.66)"/><path class="cls-11" d="M405.65,347.23a1.27,1.27,0,0,1-1.76-.41h0a1.27,1.27,0,0,1,.41-1.75h0a1.26,1.26,0,0,1,1.75.39h0a1.27,1.27,0,0,1,0,1.33h0A1.39,1.39,0,0,1,405.65,347.23Z" transform="translate(27.27 154.66)"/><path class="cls-11" d="M383.55,375.34a1.27,1.27,0,0,1-.87-1.58h0a1.28,1.28,0,0,1,1.59-.87h0a1.27,1.27,0,0,1,.86,1.58h0a1.82,1.82,0,0,1-.11.28h0A1.28,1.28,0,0,1,383.55,375.34Z" transform="translate(27.27 154.66)"/><path class="cls-3" d="M397.88,341l0,0h0l0,0h0a1.26,1.26,0,0,1-.46-1.74h0a1.27,1.27,0,0,1,1.74-.47h0l0,0h0l0,0h0a1.27,1.27,0,0,1,.46,1.74h0A1.29,1.29,0,0,1,397.88,341Z" transform="translate(27.27 154.66)"/><path class="cls-3" d="M377.07,370.52a1.27,1.27,0,0,1-1.8,0h0a1.28,1.28,0,0,1,0-1.8h0a1.28,1.28,0,0,1,1.81,0h0a1.29,1.29,0,0,1,.22,1.57h0A1.33,1.33,0,0,1,377.07,370.52Z" transform="translate(27.27 154.66)"/><path class="cls-11" d="M389.81,338.69a1.27,1.27,0,0,1-1.23-1.32h0a1.27,1.27,0,0,1,1.32-1.23h0a1.27,1.27,0,0,1,1.23,1.32h0a1.23,1.23,0,0,1-.17.6h0A1.27,1.27,0,0,1,389.81,338.69Z" transform="translate(27.27 154.66)"/><path class="cls-11" d="M371.77,363.27a1.27,1.27,0,0,1-1.61-.8h0a1.26,1.26,0,0,1,.81-1.62h0a1.28,1.28,0,0,1,1.61.81h0a1.25,1.25,0,0,1-.11,1h0A1.25,1.25,0,0,1,371.77,363.27Z" transform="translate(27.27 154.66)"/><path class="cls-11" d="M381.63,340.38h0a1.3,1.3,0,0,1-1.71-.61h0a1.28,1.28,0,0,1,.61-1.7h0a1.27,1.27,0,0,1,1.7.6h0a1.28,1.28,0,0,1,0,1.19h0A1.34,1.34,0,0,1,381.63,340.38Z" transform="translate(27.27 154.66)"/><path class="cls-11" d="M370.43,354.4a1.29,1.29,0,0,1-1.05-1.47h0a1.28,1.28,0,0,1,1.46-1.06h0a1.28,1.28,0,0,1,1.06,1.47h0a1.17,1.17,0,0,1-.16.44h0A1.29,1.29,0,0,1,370.43,354.4Z" transform="translate(27.27 154.66)"/><path class="cls-11" d="M375.17,345.66a1.28,1.28,0,0,1-1.79.25h0a1.26,1.26,0,0,1-.25-1.78h0a1.27,1.27,0,0,1,1.78-.26h0a1.27,1.27,0,0,1,.34,1.66h0A.91.91,0,0,1,375.17,345.66Z" transform="translate(27.27 154.66)"/><path class="cls-3" d="M663.34,23.21a1.93,1.93,0,0,1-1-2.53h0a1.92,1.92,0,0,1,2.53-1h0a1.94,1.94,0,0,1,1,2.53h0l-.11.21h0A1.93,1.93,0,0,1,663.34,23.21Z" transform="translate(27.27 154.66)"/><path class="cls-11" d="M657.19,33.73a1.92,1.92,0,0,1-2.71-.28h0a1.91,1.91,0,0,1,.28-2.7h0a1.92,1.92,0,0,1,2.71.27h0a1.94,1.94,0,0,1,.17,2.19h0A1.83,1.83,0,0,1,657.19,33.73Z" transform="translate(27.27 154.66)"/><path class="cls-11" d="M666.44,10a1.93,1.93,0,0,1-2.07-1.77h0a1.91,1.91,0,0,1,1.76-2.07h0A1.93,1.93,0,0,1,668.21,8h0A1.94,1.94,0,0,1,668,9.07h0A1.9,1.9,0,0,1,666.44,10Z" transform="translate(27.27 154.66)"/><path class="cls-11" d="M644.14,39.9a1.92,1.92,0,0,1-2.27-1.5h0a1.93,1.93,0,0,1,1.5-2.27h0a1.94,1.94,0,0,1,2.28,1.5h0a1.9,1.9,0,0,1-.22,1.35h0A1.91,1.91,0,0,1,644.14,39.9Z" transform="translate(27.27 154.66)"/><path class="cls-11" d="M663.06-3.09a1.93,1.93,0,0,1-2.66-.61h0A1.92,1.92,0,0,1,661-6.35h0a1.92,1.92,0,0,1,2.65.6h0a1.92,1.92,0,0,1,0,2h0A1.92,1.92,0,0,1,663.06-3.09Z" transform="translate(27.27 154.66)"/><path class="cls-3" d="M629.72,39.32a1.93,1.93,0,0,1-1.31-2.39h0a1.92,1.92,0,0,1,2.39-1.31h0A1.94,1.94,0,0,1,632.11,38h0a2.08,2.08,0,0,1-.19.43h0A1.92,1.92,0,0,1,629.72,39.32Z" transform="translate(27.27 154.66)"/><path class="cls-3" d="M651.34-12.43l-.05,0h0l0,0h0a1.91,1.91,0,0,1-.71-2.63h0a1.91,1.91,0,0,1,2.62-.71h0l.06,0h0l0,0h0a1.93,1.93,0,0,1,.7,2.63h0A1.93,1.93,0,0,1,651.34-12.43Z" transform="translate(27.27 154.66)"/><path class="cls-11" d="M619.94,32a1.92,1.92,0,0,1-2.72.06h0a1.94,1.94,0,0,1-.06-2.73h0a2,2,0,0,1,2.73-.05h0a1.93,1.93,0,0,1,.33,2.36h0A1.35,1.35,0,0,1,619.94,32Z" transform="translate(27.27 154.66)"/><path class="cls-3" d="M639.15-16a1.93,1.93,0,0,1-1.85-2h0a1.93,1.93,0,0,1,2-1.85h0a1.93,1.93,0,0,1,1.86,2h0a1.89,1.89,0,0,1-.26.89h0A1.92,1.92,0,0,1,639.15-16Z" transform="translate(27.27 154.66)"/><path class="cls-11" d="M612,21.11a1.92,1.92,0,0,1-2.44-1.21h0a1.93,1.93,0,0,1,1.22-2.44h0a1.94,1.94,0,0,1,2.44,1.22h0a1.94,1.94,0,0,1-.17,1.58h0A1.94,1.94,0,0,1,612,21.11Z" transform="translate(27.27 154.66)"/><path class="cls-11" d="M626.81-13.43a1.93,1.93,0,0,1-2.57-.91h0a1.94,1.94,0,0,1,.92-2.57h0a1.93,1.93,0,0,1,2.57.91h0a1.94,1.94,0,0,1-.08,1.8h0A2,2,0,0,1,626.81-13.43Z" transform="translate(27.27 154.66)"/><path class="cls-11" d="M609.93,7.72a1.92,1.92,0,0,1-1.59-2.21h0a1.93,1.93,0,0,1,2.21-1.6h0a1.94,1.94,0,0,1,1.59,2.21h0a1.85,1.85,0,0,1-.24.67h0A1.93,1.93,0,0,1,609.93,7.72Z" transform="translate(27.27 154.66)"/><path class="cls-3" d="M617.07-5.46a1.94,1.94,0,0,1-2.7.39h0a1.93,1.93,0,0,1-.38-2.7h0a1.93,1.93,0,0,1,2.69-.39h0a1.94,1.94,0,0,1,.52,2.51h0Z" transform="translate(27.27 154.66)"/><path class="cls-11" d="M658.76,20.87a1.58,1.58,0,0,1-.83-2.07h0A1.58,1.58,0,0,1,660,18h0a1.58,1.58,0,0,1,.83,2.07h0a.91.91,0,0,1-.09.17h0A1.57,1.57,0,0,1,658.76,20.87Z" transform="translate(27.27 154.66)"/><path class="cls-11" d="M653.72,29.48a1.56,1.56,0,0,1-2.21-.23h0a1.58,1.58,0,0,1,.23-2.22h0a1.57,1.57,0,0,1,2.21.23h0a1.57,1.57,0,0,1,.14,1.79h0A1.49,1.49,0,0,1,653.72,29.48Z" transform="translate(27.27 154.66)"/><path class="cls-11" d="M661.3,10.09a1.59,1.59,0,0,1-1.7-1.45h0A1.58,1.58,0,0,1,661,6.94h0a1.58,1.58,0,0,1,1.7,1.45h0a1.64,1.64,0,0,1-.21.91h0A1.6,1.6,0,0,1,661.3,10.09Z" transform="translate(27.27 154.66)"/><path class="cls-11" d="M643.05,34.53a1.58,1.58,0,0,1-1.86-1.23h0a1.58,1.58,0,0,1,1.23-1.86h0a1.58,1.58,0,0,1,1.86,1.23h0a1.54,1.54,0,0,1-.18,1.1h0A1.59,1.59,0,0,1,643.05,34.53Z" transform="translate(27.27 154.66)"/><path class="cls-3" d="M658.53-.65a1.58,1.58,0,0,1-2.18-.5h0a1.58,1.58,0,0,1,.5-2.17h0a1.57,1.57,0,0,1,2.17.5h0a1.59,1.59,0,0,1,0,1.63h0A1.58,1.58,0,0,1,658.53-.65Z" transform="translate(27.27 154.66)"/><path class="cls-11" d="M631.25,34.05a1.56,1.56,0,0,1-1.07-1.95h0a1.57,1.57,0,0,1,2-1.08h0a1.58,1.58,0,0,1,1.07,2h0a2.17,2.17,0,0,1-.15.35h0A1.57,1.57,0,0,1,631.25,34.05Z" transform="translate(27.27 154.66)"/><path class="cls-11" d="M648.93-8.29h0l0,0h0l0,0h0a1.59,1.59,0,0,1-.58-2.16h0a1.57,1.57,0,0,1,2.15-.57h0l.05,0h0l0,0h0a1.56,1.56,0,0,1,.58,2.15h0A1.58,1.58,0,0,1,648.93-8.29Z" transform="translate(27.27 154.66)"/><path class="cls-11" d="M623.25,28.1a1.57,1.57,0,0,1-2.23,0h0a1.57,1.57,0,0,1,0-2.22h0a1.58,1.58,0,0,1,2.23-.05h0a1.59,1.59,0,0,1,.27,1.93h0A2.17,2.17,0,0,1,623.25,28.1Z" transform="translate(27.27 154.66)"/><path class="cls-11" d="M639-11.19a1.57,1.57,0,0,1-1.51-1.63h0a1.58,1.58,0,0,1,1.63-1.52h0a1.57,1.57,0,0,1,1.52,1.64h0a1.67,1.67,0,0,1-.21.73h0A1.59,1.59,0,0,1,639-11.19Z" transform="translate(27.27 154.66)"/><path class="cls-3" d="M616.7,19.15a1.56,1.56,0,0,1-2-1h0a1.57,1.57,0,0,1,1-2h0a1.59,1.59,0,0,1,2,1h0a1.6,1.6,0,0,1-.14,1.29h0A1.53,1.53,0,0,1,616.7,19.15Z" transform="translate(27.27 154.66)"/><path class="cls-11" d="M628.87-9.11a1.57,1.57,0,0,1-2.1-.75h0a1.56,1.56,0,0,1,.75-2.09h0a1.58,1.58,0,0,1,2.1.74h0a1.59,1.59,0,0,1-.06,1.47h0A1.56,1.56,0,0,1,628.87-9.11Z" transform="translate(27.27 154.66)"/><path class="cls-11" d="M615.06,8.19a1.57,1.57,0,0,1-1.31-1.8h0a1.57,1.57,0,0,1,1.81-1.3h0a1.57,1.57,0,0,1,1.31,1.8h0a1.83,1.83,0,0,1-.2.54h0A1.56,1.56,0,0,1,615.06,8.19Z" transform="translate(27.27 154.66)"/><path class="cls-11" d="M620.9-2.59a1.58,1.58,0,0,1-2.21.32h0a1.57,1.57,0,0,1-.31-2.21h0a1.58,1.58,0,0,1,2.2-.32h0A1.58,1.58,0,0,1,621-2.74h0A1.3,1.3,0,0,1,620.9-2.59Z" transform="translate(27.27 154.66)"/><path class="cls-11" d="M654.84,18.87a1.27,1.27,0,0,1-.67-1.67h0a1.28,1.28,0,0,1,1.68-.68h0a1.29,1.29,0,0,1,.67,1.68h0c0,.05,0,.09-.07.14h0A1.28,1.28,0,0,1,654.84,18.87Z" transform="translate(27.27 154.66)"/><path class="cls-11" d="M650.76,25.85h0a1.28,1.28,0,0,1-1.79-.19h0a1.27,1.27,0,0,1,.18-1.8h0a1.29,1.29,0,0,1,1.8.19h0a1.27,1.27,0,0,1,.11,1.44h0A1,1,0,0,1,650.76,25.85Z" transform="translate(27.27 154.66)"/><path class="cls-11" d="M656.9,10.13A1.28,1.28,0,0,1,655.52,9h0a1.29,1.29,0,0,1,1.17-1.38h0a1.29,1.29,0,0,1,1.38,1.17h0a1.27,1.27,0,0,1-.18.75h0A1.24,1.24,0,0,1,656.9,10.13Z" transform="translate(27.27 154.66)"/><path class="cls-3" d="M642.11,29.93a1.27,1.27,0,0,1-1.5-1h0a1.28,1.28,0,0,1,1-1.51h0a1.28,1.28,0,0,1,1.51,1h0a1.24,1.24,0,0,1-.15.89h0A1.21,1.21,0,0,1,642.11,29.93Z" transform="translate(27.27 154.66)"/><path class="cls-11" d="M654.65,1.44A1.27,1.27,0,0,1,652.89,1h0a1.27,1.27,0,0,1,.41-1.75h0a1.26,1.26,0,0,1,1.75.39h0a1.27,1.27,0,0,1,0,1.33h0A1.39,1.39,0,0,1,654.65,1.44Z" transform="translate(27.27 154.66)"/><path class="cls-11" d="M632.55,29.55a1.28,1.28,0,0,1-.87-1.59h0a1.3,1.3,0,0,1,1.59-.87h0a1.28,1.28,0,0,1,.86,1.59h0A1.82,1.82,0,0,1,634,29h0A1.28,1.28,0,0,1,632.55,29.55Z" transform="translate(27.27 154.66)"/><path class="cls-3" d="M646.88-4.76l0,0h0a1.26,1.26,0,0,1-.46-1.74h0A1.26,1.26,0,0,1,648.1-7h0l0,0h0a1.29,1.29,0,0,1,.46,1.75h0A1.28,1.28,0,0,1,646.88-4.76Z" transform="translate(27.27 154.66)"/><path class="cls-3" d="M626.07,24.73a1.27,1.27,0,0,1-1.8,0h0a1.28,1.28,0,0,1,0-1.8h0a1.28,1.28,0,0,1,1.81,0h0a1.28,1.28,0,0,1,.22,1.56h0A1.1,1.1,0,0,1,626.07,24.73Z" transform="translate(27.27 154.66)"/><path class="cls-11" d="M638.81-7.11a1.26,1.26,0,0,1-1.23-1.31h0a1.27,1.27,0,0,1,1.32-1.23h0a1.27,1.27,0,0,1,1.23,1.32h0a1.16,1.16,0,0,1-.17.59h0A1.24,1.24,0,0,1,638.81-7.11Z" transform="translate(27.27 154.66)"/><path class="cls-11" d="M620.77,17.48a1.28,1.28,0,0,1-1.61-.8h0a1.26,1.26,0,0,1,.81-1.62h0a1.28,1.28,0,0,1,1.61.81h0a1.25,1.25,0,0,1-.11,1h0A1.25,1.25,0,0,1,620.77,17.48Z" transform="translate(27.27 154.66)"/><path class="cls-11" d="M630.63-5.42h0A1.29,1.29,0,0,1,628.92-6h0a1.28,1.28,0,0,1,.61-1.69h0a1.26,1.26,0,0,1,1.7.6h0a1.28,1.28,0,0,1,0,1.19h0A1.32,1.32,0,0,1,630.63-5.42Z" transform="translate(27.27 154.66)"/><path class="cls-11" d="M619.43,8.6a1.28,1.28,0,0,1-1-1.46h0a1.28,1.28,0,0,1,1.46-1.06h0a1.28,1.28,0,0,1,1.06,1.47h0a1.12,1.12,0,0,1-.16.43h0A1.26,1.26,0,0,1,619.43,8.6Z" transform="translate(27.27 154.66)"/><path class="cls-11" d="M624.17-.14a1.28,1.28,0,0,1-1.79.26h0a1.26,1.26,0,0,1-.25-1.78h0a1.26,1.26,0,0,1,1.78-.26h0a1.27,1.27,0,0,1,.34,1.66h0A.83.83,0,0,1,624.17-.14Z" transform="translate(27.27 154.66)"/><path class="cls-3" d="M4.17-10.37a3.26,3.26,0,0,1-4.61.19A3.27,3.27,0,0,1-.63-14.8,3.27,3.27,0,0,1,4-15,3.26,3.26,0,0,1,4.17-10.37Z" transform="translate(27.27 154.66)"/><path class="cls-3" d="M46.23,28.47A3.27,3.27,0,1,1,46,23.85,3.28,3.28,0,0,1,46.23,28.47Z" transform="translate(27.27 154.66)"/><path class="cls-11" d="M60.25,41.41a3.27,3.27,0,1,1-.19-4.61A3.27,3.27,0,0,1,60.25,41.41Z" transform="translate(27.27 154.66)"/><path class="cls-3" d="M29.94-10.15a3.27,3.27,0,0,1-4.61.18,3.26,3.26,0,0,1-.19-4.61,3.27,3.27,0,0,1,4.62-.18A3.27,3.27,0,0,1,29.94-10.15Z" transform="translate(27.27 154.66)"/><path class="cls-3" d="M44,2.79A3.26,3.26,0,0,1,39.35,3a3.27,3.27,0,0,1-.19-4.62A3.27,3.27,0,0,1,44,2.79Z" transform="translate(27.27 154.66)"/><path class="cls-3" d="M27.67-35.82a3.27,3.27,0,0,1-4.61.18,3.26,3.26,0,0,1-.18-4.61,3.26,3.26,0,0,1,4.61-.19A3.28,3.28,0,0,1,27.67-35.82Z" transform="translate(27.27 154.66)"/><path class="cls-11" d="M41.69-22.88a3.26,3.26,0,0,1-4.61.18,3.25,3.25,0,0,1-.18-4.61,3.26,3.26,0,0,1,4.61-.18A3.27,3.27,0,0,1,41.69-22.88Z" transform="translate(27.27 154.66)"/><path class="cls-3" d="M55.71-9.94a3.26,3.26,0,0,1-4.61.19,3.26,3.26,0,0,1-.19-4.61,3.27,3.27,0,0,1,4.62-.19A3.27,3.27,0,0,1,55.71-9.94Z" transform="translate(27.27 154.66)"/><path class="cls-3" d="M69.73,3a3.26,3.26,0,0,1-4.61.18,3.26,3.26,0,0,1-.19-4.61A3.27,3.27,0,0,1,69.73,3Z" transform="translate(27.27 154.66)"/><path class="cls-3" d="M83.75,16a3.27,3.27,0,1,1-.18-4.61A3.26,3.26,0,0,1,83.75,16Z" transform="translate(27.27 154.66)"/><path class="cls-11" d="M39.42-48.55a3.27,3.27,0,0,1-4.61.18A3.26,3.26,0,0,1,34.63-53a3.25,3.25,0,0,1,4.61-.18A3.26,3.26,0,0,1,39.42-48.55Z" transform="translate(27.27 154.66)"/><path class="cls-3" d="M67.46-22.66a3.27,3.27,0,0,1-4.61.18,3.26,3.26,0,0,1-.18-4.61,3.26,3.26,0,0,1,4.61-.19A3.27,3.27,0,0,1,67.46-22.66Z" transform="translate(27.27 154.66)"/><path class="cls-11" d="M81.48-9.72a3.26,3.26,0,0,1-4.61.18,3.26,3.26,0,0,1-.18-4.61,3.27,3.27,0,0,1,4.61-.18A3.26,3.26,0,0,1,81.48-9.72Z" transform="translate(27.27 154.66)"/><path class="cls-3" d="M469.83,483.94a3.27,3.27,0,1,1-.27-4.61A3.26,3.26,0,0,1,469.83,483.94Z" transform="translate(27.27 154.66)"/><path class="cls-11" d="M484.09,496.62a3.27,3.27,0,1,1-.27-4.61A3.26,3.26,0,0,1,484.09,496.62Z" transform="translate(27.27 154.66)"/><path class="cls-3" d="M512.61,522a3.26,3.26,0,1,1-.27-4.6A3.26,3.26,0,0,1,512.61,522Z" transform="translate(27.27 154.66)"/><path class="cls-11" d="M526.87,534.67a3.27,3.27,0,1,1-.27-4.61A3.27,3.27,0,0,1,526.87,534.67Z" transform="translate(27.27 154.66)"/><path class="cls-3" d="M495.6,483.68a3.26,3.26,0,1,1-.27-4.61A3.27,3.27,0,0,1,495.6,483.68Z" transform="translate(27.27 154.66)"/><path class="cls-3" d="M509.86,496.36a3.27,3.27,0,1,1-.27-4.61A3.27,3.27,0,0,1,509.86,496.36Z" transform="translate(27.27 154.66)"/><path class="cls-11" d="M524.12,509a3.27,3.27,0,1,1-.27-4.61A3.26,3.26,0,0,1,524.12,509Z" transform="translate(27.27 154.66)"/><path class="cls-11" d="M507.12,470.73a3.27,3.27,0,1,1-.27-4.61A3.26,3.26,0,0,1,507.12,470.73Z" transform="translate(27.27 154.66)"/><path class="cls-3" d="M521.38,483.41a3.27,3.27,0,1,1-.27-4.6A3.26,3.26,0,0,1,521.38,483.41Z" transform="translate(27.27 154.66)"/><path class="cls-3" d="M535.63,496.09a3.26,3.26,0,1,1-.27-4.6A3.25,3.25,0,0,1,535.63,496.09Z" transform="translate(27.27 154.66)"/><path class="cls-3" d="M549.89,508.78a3.27,3.27,0,1,1-.27-4.61A3.28,3.28,0,0,1,549.89,508.78Z" transform="translate(27.27 154.66)"/><path class="cls-11" d="M504.37,445.11a3.27,3.27,0,1,1-.27-4.61A3.28,3.28,0,0,1,504.37,445.11Z" transform="translate(27.27 154.66)"/><path class="cls-3" d="M532.89,470.47a3.27,3.27,0,1,1-.27-4.61A3.26,3.26,0,0,1,532.89,470.47Z" transform="translate(27.27 154.66)"/><path class="cls-11" d="M547.15,483.15a3.27,3.27,0,1,1-.27-4.61A3.26,3.26,0,0,1,547.15,483.15Z" transform="translate(27.27 154.66)"/><circle class="cls-25" cx="590.27" cy="350.66" r="13"/><circle class="cls-26" cx="211.43" cy="254.66" r="13"/><path class="cls-11" d="M272.5,230.83a17,17,0,1,1,17-17A17,17,0,0,1,272.5,230.83Zm0-26a9,9,0,1,0,9,9A9,9,0,0,0,272.5,204.83Z" transform="translate(27.27 154.66)"/><path class="cls-12" d="M254,212.33a17,17,0,1,1,17-17A17,17,0,0,1,254,212.33Zm0-26a9,9,0,1,0,9,9A9,9,0,0,0,254,186.33Z" transform="translate(27.27 154.66)"/><path class="cls-11" d="M709.83,434.83a17,17,0,1,1,17-17A17,17,0,0,1,709.83,434.83Zm0-26a9,9,0,1,0,9,9A9,9,0,0,0,709.83,408.83Z" transform="translate(27.27 154.66)"/><path class="cls-12" d="M691.33,416.33a17,17,0,1,1,17-17A17,17,0,0,1,691.33,416.33Zm0-26a9,9,0,1,0,9,9A9,9,0,0,0,691.33,390.33Z" transform="translate(27.27 154.66)"/><path class="cls-11" d="M483.42,94.42a17,17,0,1,1,17-17A17,17,0,0,1,483.42,94.42Zm0-26a9,9,0,1,0,9,9A9,9,0,0,0,483.42,68.42Z" transform="translate(27.27 154.66)"/><path class="cls-12" d="M464.92,75.92a17,17,0,1,1,17-17A17,17,0,0,1,464.92,75.92Zm0-26a9,9,0,1,0,9,9A9,9,0,0,0,464.92,49.92Z" transform="translate(27.27 154.66)"/><circle class="cls-27" cx="699.6" cy="276.66" r="8.17"/><path class="cls-28" d="M471.67,304.67A4.67,4.67,0,1,1,467,300,4.67,4.67,0,0,1,471.67,304.67Z" transform="translate(27.27 154.66)"/><path class="cls-3" d="M474.75,307.75a4.67,4.67,0,1,1-4.67-4.67A4.67,4.67,0,0,1,474.75,307.75Z" transform="translate(27.27 154.66)"/><path class="cls-28" d="M143,268.67a4.67,4.67,0,1,1-4.67-4.67A4.67,4.67,0,0,1,143,268.67Z" transform="translate(27.27 154.66)"/><path class="cls-3" d="M146.08,271.75a4.67,4.67,0,1,1-4.66-4.67A4.67,4.67,0,0,1,146.08,271.75Z" transform="translate(27.27 154.66)"/><path class="cls-28" d="M272.25,38.58a4.67,4.67,0,1,1-4.67-4.66A4.67,4.67,0,0,1,272.25,38.58Z" transform="translate(27.27 154.66)"/><path class="cls-3" d="M275.33,41.67A4.67,4.67,0,1,1,270.67,37,4.66,4.66,0,0,1,275.33,41.67Z" transform="translate(27.27 154.66)"/><path class="cls-3" d="M362.41,38.68a13.69,13.69,0,0,1,0,19.49l-19.68-19.5A14,14,0,0,1,362.41,38.68Z" transform="translate(27.27 154.66)"/><path class="cls-10" d="M326.8,47.8a13.71,13.71,0,0,1,0-19.5l19.69,19.5A14,14,0,0,1,326.8,47.8Z" transform="translate(27.27 154.66)"/><path class="cls-3" d="M673.74,293.34a13.69,13.69,0,0,1,0,19.5l-19.68-19.5A14,14,0,0,1,673.74,293.34Z" transform="translate(27.27 154.66)"/><path class="cls-10" d="M638.14,302.47a13.69,13.69,0,0,1,0-19.5l19.68,19.5A14,14,0,0,1,638.14,302.47Z" transform="translate(27.27 154.66)"/></g></g></g></svg>