<svg xmlns="http://www.w3.org/2000/svg" viewBox="0 0 676 676"><defs><style>.cls-1{fill:#999;}</style></defs><g id="Layer_2" data-name="Layer 2"><g id="Layer_1-2" data-name="Layer 1"><rect class="cls-1" x="185.36" y="44.65" width="9.24" height="118" rx="4.62" transform="translate(-25.57 123.02) rotate(-33.75)"/><rect class="cls-1" x="499.53" y="505.84" width="9.24" height="118" rx="4.62" transform="translate(-228.84 375.28) rotate(-33.75)"/><rect class="cls-1" x="511.31" y="180.46" width="118" height="9.24" rx="4.62" transform="translate(-6.71 348.04) rotate(-33.75)"/><rect class="cls-1" x="50.13" y="494.62" width="118" height="9.24" rx="4.62" transform="translate(-258.97 144.77) rotate(-33.75)"/><rect class="cls-1" x="341.55" y="63.1" width="118" height="9.24" rx="4.62" transform="translate(256 447.36) rotate(-78.75)"/><rect class="cls-1" x="237.6" y="611.35" width="118" height="9.24" rx="4.62" transform="matrix(0.2, -0.98, 0.98, 0.2, -365.4, 786.7)"/><rect class="cls-1" x="607.3" y="335.22" width="9.24" height="118" rx="4.62" transform="translate(105.89 917.47) rotate(-78.75)"/><rect class="cls-1" x="59.04" y="231.27" width="9.24" height="118" rx="4.62" transform="translate(-233.45 296.08) rotate(-78.75)"/><rect class="cls-1" x="234.96" y="17.37" width="9.24" height="118" rx="4.62" transform="translate(-10.99 97.5) rotate(-22.5)"/><rect class="cls-1" x="453.12" y="530.98" width="9.24" height="118" rx="4.62" transform="translate(-190.93 220.08) rotate(-22.5)"/><rect class="cls-1" x="537.72" y="225.8" width="118" height="9.24" rx="4.62" transform="translate(-42.76 245.89) rotate(-22.5)"/><rect class="cls-1" x="24.11" y="443.96" width="118" height="9.24" rx="4.62" transform="translate(-165.34 65.95) rotate(-22.5)"/><rect class="cls-1" x="394.12" y="77.58" width="118" height="9.24" rx="4.62" transform="translate(203.78 469.37) rotate(-67.5)"/><rect class="cls-1" x="185.2" y="595.02" width="118" height="9.24" rx="4.62" transform="translate(-403.24 595.77) rotate(-67.5)"/><rect class="cls-1" x="592.1" y="384.67" width="9.24" height="118" rx="4.62" transform="translate(-41.53 825.18) rotate(-67.5)"/><rect class="cls-1" x="74.66" y="175.75" width="9.24" height="118" rx="4.62" transform="translate(-167.94 218.16) rotate(-67.5)"/><rect class="cls-1" x="341.38" width="9.24" height="118" rx="4.62"/><rect class="cls-1" x="346.38" y="558" width="9.24" height="118" rx="4.62"/><rect class="cls-1" x="558" y="333.38" width="118" height="9.24" rx="4.62"/><rect class="cls-1" y="338.38" width="118" height="9.24" rx="4.62"/><rect class="cls-1" x="482.05" y="141.49" width="118" height="9.24" rx="4.62" transform="translate(55.16 425.37) rotate(-45)"/><rect class="cls-1" x="91.02" y="539.59" width="118" height="9.24" rx="4.62" transform="translate(-340.87 265.48) rotate(-45)"/><rect class="cls-1" x="530.78" y="476.01" width="9.24" height="118" rx="4.62" transform="translate(-221.5 535.28) rotate(-45)"/><rect class="cls-1" x="132.68" y="84.98" width="9.24" height="118" rx="4.62" transform="translate(-61.6 139.25) rotate(-45)"/><rect class="cls-1" x="286.31" y="5.85" width="9.24" height="118" rx="4.62" transform="translate(-7.06 58) rotate(-11.25)"/><rect class="cls-1" x="400.07" y="552.15" width="9.24" height="118" rx="4.62" transform="translate(-111.45 90.69) rotate(-11.25)"/><rect class="cls-1" x="552.15" y="281" width="118" height="9.24" rx="4.62" transform="translate(-43.98 124.72) rotate(-11.25)"/><rect class="cls-1" x="5.85" y="394.76" width="118" height="9.24" rx="4.62" transform="translate(-76.67 20.33) rotate(-11.25)"/><rect class="cls-1" x="440.23" y="107.61" width="118" height="9.24" rx="4.62" transform="translate(128.56 464.97) rotate(-56.25)"/><rect class="cls-1" x="134.37" y="574.35" width="118" height="9.24" rx="4.62" transform="translate(-395.45 418.09) rotate(-56.25)"/><rect class="cls-1" x="564.93" y="435.77" width="9.24" height="118" rx="4.62" transform="translate(-158.26 693.45) rotate(-56.25)"/><rect class="cls-1" x="98.19" y="129.91" width="9.24" height="118" rx="4.62" transform="translate(-111.38 169.44) rotate(-56.25)"/></g></g></svg>